<svg width="231" height="134" viewBox="0 0 231 134" fill="none" xmlns="http://www.w3.org/2000/svg">
<path d="M55.0285 124.761V123.892H58.6198V124.761L57.5005 124.953V128.395H62.3485V124.953L61.2292 124.761V123.892H64.8205V124.761L63.7012 124.953V132.802L64.8205 132.994V133.856H61.2292V132.994L62.3485 132.802V129.456H57.5005V132.802L58.6198 132.994V133.856H55.0285V132.994L56.1478 132.802V124.953L55.0285 124.761Z" fill="#999591"/>
<path d="M70.8083 133.856C70.7671 133.656 70.7351 133.475 70.7122 133.316C70.6893 133.156 70.6733 132.996 70.6641 132.837C70.4032 133.17 70.0759 133.448 69.6822 133.671C69.2931 133.89 68.8765 134 68.4324 134C67.6588 134 67.0705 133.813 66.6677 133.439C66.2648 133.06 66.0634 132.529 66.0634 131.844C66.0634 131.142 66.3472 130.601 66.9149 130.222C67.4871 129.839 68.2699 129.647 69.2633 129.647H70.6573V128.785C70.6573 128.352 70.5199 128.009 70.2453 127.759C69.9706 127.503 69.5883 127.375 69.0985 127.375C68.7598 127.375 68.4599 127.419 68.199 127.505C67.9426 127.592 67.7343 127.711 67.5741 127.861L67.4299 128.641H66.3861V127.204C66.7249 126.935 67.1346 126.721 67.6153 126.561C68.096 126.397 68.6178 126.315 69.1809 126.315C70.0232 126.315 70.7053 126.529 71.2272 126.958C71.7491 127.387 72.01 128 72.01 128.799V132.364C72.01 132.46 72.01 132.554 72.01 132.645C72.0146 132.736 72.0215 132.827 72.0306 132.919L72.58 132.994V133.856H70.8083ZM68.6316 132.871C69.0802 132.871 69.4899 132.764 69.8607 132.549C70.2315 132.335 70.497 132.077 70.6573 131.776V130.558H69.2152C68.6613 130.558 68.2219 130.685 67.8968 130.941C67.5764 131.196 67.4162 131.507 67.4162 131.872C67.4162 132.196 67.5169 132.444 67.7183 132.618C67.9197 132.786 68.2241 132.871 68.6316 132.871Z" fill="#999591"/>
<path d="M73.7061 132.994L74.8254 132.802V127.512L73.7061 127.321V126.451H76.1782V132.802L77.2975 132.994V133.856H73.7061V132.994ZM76.1782 124.556H74.8254V123.18H76.1782V124.556Z" fill="#999591"/>
<path d="M78.3343 127.321V126.451H80.6622L80.7926 127.526C81.0032 127.147 81.2619 126.851 81.5686 126.636C81.8799 126.422 82.2347 126.315 82.6329 126.315C82.7382 126.315 82.8458 126.324 82.9557 126.342C83.0701 126.356 83.1571 126.372 83.2166 126.39L83.0381 127.642L82.269 127.601C81.9119 127.601 81.6121 127.686 81.3695 127.854C81.1268 128.019 80.9391 128.251 80.8064 128.552V132.802L81.9257 132.994V133.856H78.3343V132.994L79.4536 132.802V127.512L78.3343 127.321Z" fill="#999591"/>
<path d="M87.3573 132.946C87.8059 132.946 88.1996 132.809 88.5384 132.535C88.8817 132.257 89.0534 131.917 89.0534 131.516H90.2688L90.2825 131.557C90.3054 132.196 90.0193 132.764 89.4242 133.261C88.8337 133.754 88.1447 134 87.3573 134C86.2769 134 85.4506 133.649 84.8784 132.946C84.3107 132.243 84.0269 131.361 84.0269 130.298V130.01C84.0269 128.956 84.313 128.078 84.8853 127.375C85.4575 126.668 86.2815 126.315 87.3573 126.315C87.9524 126.315 88.4857 126.413 88.9573 126.609C89.4333 126.805 89.827 127.074 90.1383 127.416L90.2001 129.059H89.1221L88.8268 127.895C88.6666 127.74 88.4606 127.615 88.2088 127.519C87.957 127.423 87.6732 127.375 87.3573 127.375C86.6477 127.375 86.1396 127.631 85.8329 128.142C85.5307 128.648 85.3797 129.271 85.3797 130.01V130.298C85.3797 131.055 85.5307 131.687 85.8329 132.193C86.135 132.695 86.6431 132.946 87.3573 132.946Z" fill="#999591"/>
<path d="M96.9159 132.761C96.6824 133.158 96.3802 133.464 96.0094 133.678C95.6432 133.893 95.2198 134 94.7391 134C93.9334 134 93.3039 133.742 92.8507 133.227C92.3975 132.711 92.1709 131.908 92.1709 130.818V127.512L91.3194 127.321V126.451H93.5237V130.831C93.5237 131.621 93.6404 132.164 93.8739 132.46C94.1073 132.757 94.4713 132.905 94.9657 132.905C95.4464 132.905 95.8424 132.809 96.1536 132.618C96.4695 132.421 96.7076 132.145 96.8678 131.789V127.512L95.8721 127.321V126.451H98.2205V132.802L99.072 132.994V133.856H97.0051L96.9159 132.761Z" fill="#999591"/>
<path d="M102.505 124.665V126.451H103.913V127.451H102.505V131.947C102.505 132.294 102.576 132.538 102.718 132.679C102.865 132.821 103.057 132.891 103.295 132.891C103.414 132.891 103.547 132.882 103.693 132.864C103.844 132.841 103.97 132.818 104.071 132.795L104.256 133.719C104.128 133.802 103.941 133.868 103.693 133.918C103.446 133.973 103.199 134 102.952 134C102.402 134 101.965 133.836 101.64 133.507C101.315 133.174 101.153 132.654 101.153 131.947V127.451H99.9784V126.451H101.153V124.665H102.505Z" fill="#999591"/>
<path d="M110.979 128.778H109.963L109.743 127.889C109.578 127.733 109.37 127.61 109.118 127.519C108.871 127.423 108.589 127.375 108.274 127.375C107.793 127.375 107.436 127.48 107.202 127.69C106.969 127.9 106.852 128.153 106.852 128.45C106.852 128.742 106.955 128.972 107.161 129.141C107.367 129.31 107.786 129.46 108.418 129.593C109.356 129.793 110.054 130.067 110.512 130.414C110.97 130.756 111.199 131.217 111.199 131.796C111.199 132.453 110.931 132.985 110.395 133.391C109.864 133.797 109.168 134 108.308 134C107.745 134 107.239 133.936 106.79 133.808C106.342 133.676 105.941 133.487 105.589 133.24L105.582 131.55H106.598L106.852 132.542C107.008 132.684 107.218 132.786 107.484 132.85C107.754 132.914 108.029 132.946 108.308 132.946C108.789 132.946 109.164 132.85 109.434 132.659C109.709 132.462 109.846 132.207 109.846 131.892C109.846 131.596 109.732 131.351 109.503 131.16C109.278 130.968 108.85 130.802 108.219 130.66C107.317 130.464 106.637 130.197 106.179 129.86C105.721 129.522 105.492 129.066 105.492 128.491C105.492 127.889 105.749 127.375 106.262 126.951C106.779 126.527 107.45 126.315 108.274 126.315C108.837 126.315 109.342 126.388 109.791 126.534C110.24 126.68 110.613 126.883 110.91 127.143L110.979 128.778Z" fill="#999591"/>
<path d="M115.861 131.174C115.861 130.617 116.022 130.131 116.342 129.716C116.667 129.296 117.15 128.876 117.791 128.457C117.434 128.005 117.168 127.603 116.994 127.252C116.82 126.896 116.733 126.531 116.733 126.157C116.733 125.386 116.955 124.793 117.399 124.378C117.848 123.958 118.464 123.748 119.247 123.748C119.97 123.748 120.558 123.956 121.011 124.371C121.465 124.786 121.691 125.286 121.691 125.87C121.691 126.317 121.57 126.705 121.327 127.033C121.089 127.357 120.734 127.69 120.263 128.032L119.514 128.58L121.849 131.379C122.037 131.082 122.183 130.754 122.289 130.393C122.394 130.033 122.447 129.652 122.447 129.25H123.655C123.655 129.848 123.566 130.402 123.387 130.913C123.209 131.424 122.95 131.883 122.611 132.289L123.882 133.822L123.868 133.856H122.295L121.712 133.158C121.346 133.432 120.94 133.642 120.496 133.788C120.052 133.929 119.592 134 119.116 134C118.123 134 117.331 133.738 116.74 133.213C116.154 132.688 115.861 132.008 115.861 131.174ZM119.116 132.946C119.446 132.946 119.771 132.891 120.091 132.782C120.412 132.668 120.714 132.506 120.998 132.296L118.519 129.319L118.244 129.517C117.828 129.828 117.551 130.124 117.413 130.407C117.28 130.69 117.214 130.945 117.214 131.174C117.214 131.689 117.377 132.113 117.702 132.446C118.027 132.78 118.498 132.946 119.116 132.946ZM118.086 126.143C118.086 126.385 118.148 126.638 118.272 126.903C118.395 127.163 118.581 127.448 118.828 127.759L119.775 127.108C120.036 126.935 120.213 126.748 120.304 126.547C120.4 126.342 120.448 126.116 120.448 125.87C120.448 125.591 120.336 125.345 120.112 125.131C119.892 124.916 119.604 124.809 119.247 124.809C118.876 124.809 118.59 124.939 118.388 125.199C118.187 125.455 118.086 125.769 118.086 126.143Z" fill="#999591"/>
<path d="M135.439 126.835H134.415L134.161 125.411C133.955 125.238 133.681 125.094 133.337 124.98C132.994 124.866 132.596 124.809 132.142 124.809C131.424 124.809 130.872 124.962 130.488 125.267C130.103 125.569 129.911 125.963 129.911 126.451C129.911 126.885 130.105 127.248 130.494 127.54C130.888 127.827 131.522 128.08 132.397 128.299C133.449 128.559 134.248 128.943 134.793 129.449C135.342 129.955 135.617 130.583 135.617 131.331C135.617 132.134 135.287 132.78 134.628 133.268C133.974 133.756 133.115 134 132.053 134C131.284 134 130.6 133.875 130 133.624C129.405 133.373 128.92 133.044 128.544 132.638V130.783H129.561L129.821 132.214C130.082 132.428 130.394 132.604 130.755 132.741C131.117 132.878 131.55 132.946 132.053 132.946C132.735 132.946 133.273 132.802 133.667 132.515C134.065 132.227 134.264 131.837 134.264 131.345C134.264 130.888 134.093 130.507 133.749 130.202C133.406 129.891 132.799 129.631 131.93 129.422C130.872 129.171 130.046 128.801 129.451 128.313C128.856 127.825 128.558 127.211 128.558 126.472C128.558 125.692 128.89 125.044 129.554 124.528C130.217 124.008 131.08 123.748 132.142 123.748C132.843 123.748 133.479 123.869 134.051 124.111C134.628 124.348 135.091 124.638 135.439 124.98V126.835Z" fill="#999591"/>
<path d="M136.709 132.994L137.828 132.802V124.241L136.709 124.049V123.18H139.181V127.437C139.437 127.081 139.751 126.805 140.122 126.609C140.492 126.413 140.904 126.315 141.358 126.315C142.154 126.315 142.772 126.552 143.212 127.026C143.651 127.501 143.871 128.231 143.871 129.216V132.802L144.99 132.994V133.856H141.399V132.994L142.518 132.802V129.203C142.518 128.591 142.385 128.14 142.12 127.848C141.859 127.556 141.468 127.41 140.946 127.41C140.575 127.41 140.236 127.498 139.929 127.676C139.627 127.85 139.378 128.087 139.181 128.388V132.802L140.3 132.994V133.856H136.709V132.994Z" fill="#999591"/>
<path d="M150.82 133.856C150.779 133.656 150.747 133.475 150.724 133.316C150.701 133.156 150.685 132.996 150.676 132.837C150.415 133.17 150.088 133.448 149.694 133.671C149.305 133.89 148.888 134 148.444 134C147.671 134 147.082 133.813 146.679 133.439C146.277 133.06 146.075 132.529 146.075 131.844C146.075 131.142 146.359 130.601 146.927 130.222C147.499 129.839 148.282 129.647 149.275 129.647H150.669V128.785C150.669 128.352 150.532 128.009 150.257 127.759C149.982 127.503 149.6 127.375 149.11 127.375C148.772 127.375 148.472 127.419 148.211 127.505C147.954 127.592 147.746 127.711 147.586 127.861L147.442 128.641H146.398V127.204C146.737 126.935 147.146 126.721 147.627 126.561C148.108 126.397 148.63 126.315 149.193 126.315C150.035 126.315 150.717 126.529 151.239 126.958C151.761 127.387 152.022 128 152.022 128.799V132.364C152.022 132.46 152.022 132.554 152.022 132.645C152.026 132.736 152.033 132.827 152.042 132.919L152.592 132.994V133.856H150.82ZM148.643 132.871C149.092 132.871 149.502 132.764 149.872 132.549C150.243 132.335 150.509 132.077 150.669 131.776V130.558H149.227C148.673 130.558 148.234 130.685 147.909 130.941C147.588 131.196 147.428 131.507 147.428 131.872C147.428 132.196 147.529 132.444 147.73 132.618C147.931 132.786 148.236 132.871 148.643 132.871Z" fill="#999591"/>
<path d="M156.156 127.321L155.263 127.457L156.794 131.673L156.918 132.207H156.959L157.089 131.673L158.573 127.457L157.673 127.321V126.451H160.543V127.321L159.932 127.423L157.44 133.856H156.417L153.896 127.423L153.285 127.321V126.451H156.156V127.321Z" fill="#999591"/>
<path d="M164.76 134C163.725 134 162.901 133.658 162.288 132.973C161.679 132.285 161.374 131.393 161.374 130.298V129.996C161.374 128.943 161.688 128.067 162.315 127.368C162.947 126.666 163.693 126.315 164.554 126.315C165.552 126.315 166.307 126.616 166.82 127.218C167.337 127.82 167.596 128.623 167.596 129.627V130.469H162.775L162.755 130.503C162.768 131.215 162.949 131.801 163.297 132.262C163.645 132.718 164.133 132.946 164.76 132.946C165.217 132.946 165.618 132.882 165.961 132.754C166.309 132.622 166.609 132.442 166.861 132.214L167.39 133.09C167.124 133.345 166.772 133.562 166.332 133.74C165.897 133.913 165.373 134 164.76 134ZM164.554 127.375C164.1 127.375 163.714 127.567 163.393 127.95C163.073 128.329 162.876 128.806 162.803 129.381L162.816 129.415H166.243V129.237C166.243 128.708 166.101 128.265 165.817 127.909C165.533 127.553 165.112 127.375 164.554 127.375Z" fill="#999591"/>
<path d="M174.62 128.778H173.604L173.384 127.889C173.22 127.733 173.011 127.61 172.759 127.519C172.512 127.423 172.231 127.375 171.915 127.375C171.434 127.375 171.077 127.48 170.844 127.69C170.61 127.9 170.493 128.153 170.493 128.45C170.493 128.742 170.596 128.972 170.802 129.141C171.008 129.31 171.427 129.46 172.059 129.593C172.998 129.793 173.696 130.067 174.153 130.414C174.611 130.756 174.84 131.217 174.84 131.796C174.84 132.453 174.572 132.985 174.037 133.391C173.506 133.797 172.81 134 171.949 134C171.386 134 170.88 133.936 170.432 133.808C169.983 133.676 169.582 133.487 169.23 133.24L169.223 131.55H170.239L170.493 132.542C170.649 132.684 170.86 132.786 171.125 132.85C171.395 132.914 171.67 132.946 171.949 132.946C172.43 132.946 172.805 132.85 173.075 132.659C173.35 132.462 173.487 132.207 173.487 131.892C173.487 131.596 173.373 131.351 173.144 131.16C172.92 130.968 172.492 130.802 171.86 130.66C170.958 130.464 170.278 130.197 169.821 129.86C169.363 129.522 169.134 129.066 169.134 128.491C169.134 127.889 169.39 127.375 169.903 126.951C170.42 126.527 171.091 126.315 171.915 126.315C172.478 126.315 172.984 126.388 173.432 126.534C173.881 126.68 174.254 126.883 174.552 127.143L174.62 128.778Z" fill="#999591"/>
<path d="M83.1411 9.10207L83.8827 8.99942L87.3779 0H88.5384L91.9718 8.99942L92.7065 9.10207V9.96438H89.8362V9.10207L90.5916 8.97204L89.9324 7.13794H85.929L85.2492 8.97204L86.0046 9.10207V9.96438H83.1411V9.10207ZM86.3479 6.00874H89.5204L87.9685 1.73145H87.9273L86.3479 6.00874Z" fill="#999591"/>
<path d="M95.4601 3.42868L94.6086 3.57924L95.5769 7.26797L95.7348 8.16449H95.776L95.9683 7.26797L97.4515 2.55953H98.5364L100.027 7.26797L100.239 8.26715H100.281L100.48 7.26797L101.393 3.57924L100.528 3.42868V2.55953H103.357V3.42868L102.711 3.52449L100.837 9.96438H99.745L98.303 5.4544L97.994 4.20885L97.9528 4.2157L97.6644 5.4544L96.2498 9.96438H95.158L93.2834 3.52449L92.631 3.42868V2.55953H95.4601V3.42868Z" fill="#999591"/>
<path d="M107.848 10.1081C106.813 10.1081 105.989 9.76591 105.376 9.08154C104.767 8.39261 104.462 7.50066 104.462 6.40567V6.10455C104.462 5.05062 104.776 4.17464 105.403 3.47658C106.035 2.77397 106.781 2.42266 107.642 2.42266C108.64 2.42266 109.395 2.72378 109.908 3.32602C110.425 3.92826 110.684 4.73125 110.684 5.73499V6.57676H105.863L105.843 6.61098C105.856 7.32272 106.037 7.909 106.385 8.3698C106.733 8.82605 107.221 9.05417 107.848 9.05417C108.306 9.05417 108.706 8.9903 109.049 8.86255C109.397 8.73024 109.697 8.55002 109.949 8.3219L110.478 9.19789C110.212 9.45338 109.86 9.6701 109.42 9.84803C108.985 10.0214 108.461 10.1081 107.848 10.1081ZM107.642 3.48343C107.189 3.48343 106.802 3.67505 106.481 4.05829C106.161 4.43698 105.964 4.91375 105.891 5.48862L105.905 5.52284H109.331V5.3449C109.331 4.81566 109.189 4.3731 108.905 4.01723C108.621 3.66136 108.2 3.48343 107.642 3.48343Z" fill="#999591"/>
<path d="M117.708 4.88638H116.692L116.472 3.9967C116.308 3.84158 116.099 3.71839 115.848 3.62714C115.6 3.53133 115.319 3.48343 115.003 3.48343C114.522 3.48343 114.165 3.58836 113.932 3.79823C113.698 4.00811 113.582 4.26132 113.582 4.55788C113.582 4.84988 113.685 5.08028 113.891 5.24909C114.097 5.4179 114.515 5.56846 115.147 5.70077C116.086 5.90152 116.784 6.17527 117.242 6.52201C117.699 6.8642 117.928 7.325 117.928 7.90443C117.928 8.56143 117.66 9.09295 117.125 9.49901C116.594 9.90506 115.898 10.1081 115.037 10.1081C114.474 10.1081 113.968 10.0442 113.52 9.91647C113.071 9.78416 112.671 9.59482 112.318 9.34845L112.311 7.65806H113.327L113.582 8.65039C113.737 8.79183 113.948 8.89448 114.213 8.95836C114.483 9.02223 114.758 9.05417 115.037 9.05417C115.518 9.05417 115.893 8.95836 116.163 8.76674C116.438 8.57055 116.575 8.31505 116.575 8.00025C116.575 7.70369 116.461 7.4596 116.232 7.26797C116.008 7.07635 115.58 6.90982 114.948 6.76838C114.046 6.5722 113.366 6.3053 112.909 5.96768C112.451 5.63006 112.222 5.17381 112.222 4.59894C112.222 3.9967 112.478 3.48343 112.991 3.05912C113.508 2.63481 114.179 2.42266 115.003 2.42266C115.566 2.42266 116.072 2.49566 116.521 2.64165C116.969 2.78765 117.342 2.99068 117.64 3.25074L117.708 4.88638Z" fill="#999591"/>
<path d="M119.199 6.19352C119.199 5.09853 119.496 4.19745 120.091 3.49027C120.686 2.77853 121.494 2.42266 122.515 2.42266C123.541 2.42266 124.351 2.77625 124.946 3.48343C125.546 4.1906 125.846 5.09397 125.846 6.19352V6.34408C125.846 7.44819 125.548 8.35155 124.953 9.05417C124.358 9.75679 123.55 10.1081 122.529 10.1081C121.499 10.1081 120.686 9.75679 120.091 9.05417C119.496 8.34699 119.199 7.44363 119.199 6.34408V6.19352ZM120.551 6.34408C120.551 7.12882 120.716 7.77668 121.046 8.28768C121.38 8.79867 121.874 9.05417 122.529 9.05417C123.17 9.05417 123.657 8.79867 123.992 8.28768C124.326 7.77668 124.493 7.12882 124.493 6.34408V6.19352C124.493 5.4179 124.326 4.77232 123.992 4.25676C123.657 3.7412 123.165 3.48343 122.515 3.48343C121.865 3.48343 121.375 3.7412 121.046 4.25676C120.716 4.77232 120.551 5.4179 120.551 6.19352V6.34408Z" fill="#999591"/>
<path d="M126.821 9.10207L127.94 8.91045V3.6203L126.821 3.42868V2.55953H129.155L129.245 3.52449C129.483 3.17318 129.789 2.90171 130.165 2.71009C130.54 2.51847 130.975 2.42266 131.47 2.42266C131.964 2.42266 132.387 2.53672 132.74 2.76484C133.097 2.99296 133.365 3.33515 133.543 3.79139C133.777 3.37165 134.086 3.03859 134.47 2.79222C134.855 2.54584 135.303 2.42266 135.816 2.42266C136.576 2.42266 137.176 2.68272 137.615 3.20284C138.055 3.71839 138.275 4.49629 138.275 5.53653V8.91045L139.394 9.10207V9.96438H135.796V9.10207L136.915 8.91045V5.52284C136.915 4.79285 136.789 4.27729 136.537 3.97617C136.285 3.67049 135.912 3.51764 135.418 3.51764C134.946 3.51764 134.566 3.68417 134.278 4.01723C133.994 4.34573 133.829 4.76091 133.784 5.26278V8.91045L134.903 9.10207V9.96438H131.312V9.10207L132.431 8.91045V5.52284C132.431 4.82935 132.3 4.32292 132.039 4.00354C131.783 3.67961 131.41 3.51764 130.92 3.51764C130.508 3.51764 130.169 3.60205 129.904 3.77086C129.638 3.93967 129.435 4.17692 129.293 4.4826V8.91045L130.412 9.10207V9.96438H126.821V9.10207Z" fill="#999591"/>
<path d="M143.706 10.1081C142.672 10.1081 141.848 9.76591 141.234 9.08154C140.625 8.39261 140.321 7.50066 140.321 6.40567V6.10455C140.321 5.05062 140.634 4.17464 141.262 3.47658C141.893 2.77397 142.64 2.42266 143.5 2.42266C144.498 2.42266 145.253 2.72378 145.766 3.32602C146.283 3.92826 146.542 4.73125 146.542 5.73499V6.57676H141.722L141.701 6.61098C141.715 7.32272 141.896 7.909 142.244 8.3698C142.591 8.82605 143.079 9.05417 143.706 9.05417C144.164 9.05417 144.564 8.9903 144.908 8.86255C145.256 8.73024 145.556 8.55002 145.807 8.3219L146.336 9.19789C146.071 9.45338 145.718 9.6701 145.279 9.84803C144.844 10.0214 144.32 10.1081 143.706 10.1081ZM143.5 3.48343C143.047 3.48343 142.66 3.67505 142.34 4.05829C142.019 4.43698 141.822 4.91375 141.749 5.48862L141.763 5.52284H145.189V5.3449C145.189 4.81566 145.047 4.3731 144.764 4.01723C144.48 3.66136 144.059 3.48343 143.5 3.48343Z" fill="#999591"/>
<rect y="106.073" width="230.033" height="2.00226" fill="#FF9000"/>
<rect y="25.9825" width="230.033" height="2.00226" fill="#FF9000"/>
<path d="M53.2793 64.8023V78.8742C53.2793 80.0702 53.0356 81.2101 52.548 82.294C52.098 83.3405 51.4792 84.2562 50.6917 85.0411C49.9042 85.826 48.9666 86.4427 47.8791 86.8912C46.829 87.3771 45.704 87.62 44.5039 87.62C43.3038 87.62 42.1788 87.3958 41.1287 86.9473C40.0787 86.4988 39.1599 85.9008 38.3723 85.1533C37.5848 84.3684 36.9473 83.4714 36.4598 82.4622C36.0097 81.4157 35.766 80.2944 35.7285 79.0984V68.7267C35.616 67.5681 35.0909 66.7271 34.1534 66.2039C34.6784 65.9422 35.2034 65.8114 35.7285 65.8114V52.5805C35.766 51.3845 36.0097 50.2632 36.4598 49.2167C36.9473 48.1702 37.5848 47.2732 38.3723 46.5256C39.1599 45.7408 40.0787 45.1241 41.1287 44.6756C42.1788 44.227 43.3038 44.0028 44.5039 44.0028C45.704 44.0028 46.829 44.2457 47.8791 44.7316C48.9666 45.1801 49.9042 45.7968 50.6917 46.5817C51.4792 47.3666 52.098 48.301 52.548 49.3849C53.0356 50.4314 53.2793 51.5713 53.2793 52.8047C53.2793 53.4401 53.3356 53.9073 53.4481 54.2063C53.5981 54.5053 53.7481 54.7483 53.8981 54.9351C54.0481 55.122 54.1794 55.2902 54.2919 55.4397C54.4419 55.5892 54.5169 55.8321 54.5169 56.1685H51.5917C50.9917 56.0938 50.6917 55.7761 50.6917 55.2155C50.6917 55.7761 50.3917 56.0938 49.7916 56.1685H46.8103C46.8103 55.8321 46.8665 55.5892 46.979 55.4397C47.129 55.2902 47.279 55.122 47.429 54.9351C47.579 54.7483 47.7103 54.5053 47.8228 54.2063C47.9728 53.9073 48.0478 53.4214 48.0478 52.7487V52.6926C48.0478 52.2067 48.0291 51.6274 47.9916 50.9546C47.9541 50.2445 47.8228 49.5717 47.5978 48.9364C47.3728 48.301 47.0165 47.759 46.529 47.3105C46.0415 46.862 45.3664 46.6378 44.5039 46.6378C43.6039 46.6378 42.9101 46.8807 42.4225 47.3666C41.9725 47.8151 41.635 48.357 41.41 48.9924C41.185 49.6278 41.0537 50.3006 41.0162 51.0107C40.9787 51.7208 40.96 52.3188 40.96 52.8047V65.8114C41.485 65.8114 42.01 65.9422 42.535 66.2039C41.5975 66.7271 41.0725 67.5681 40.96 68.7267V78.8742C40.96 79.3601 40.9787 79.9581 41.0162 80.6682C41.0537 81.341 41.185 82.0137 41.41 82.6865C41.635 83.3219 41.9725 83.8638 42.4225 84.3123C42.9101 84.7608 43.6039 84.9851 44.5039 84.9851C45.4039 84.9851 46.079 84.7608 46.529 84.3123C47.0165 83.8638 47.3728 83.3219 47.5978 82.6865C47.8228 82.0137 47.9541 81.341 47.9916 80.6682C48.0291 79.9581 48.0478 79.3601 48.0478 78.8742V67.3812C47.6353 67.4186 47.279 67.5868 46.979 67.8858C46.7165 68.1848 46.5852 68.5398 46.5852 68.951V69.007C46.5477 69.5677 46.3977 70.0535 46.1352 70.4647C45.9102 70.8384 45.5727 71.1748 45.1227 71.4738C44.6727 71.7354 44.0164 71.8663 43.1538 71.8663V64.8023H53.2793ZM38.7661 63.1764C38.7661 62.9522 38.7474 62.7279 38.7099 62.5037C38.7099 62.2794 38.7099 62.0739 38.7099 61.887V60.5975C38.6724 59.7753 38.6536 58.9904 38.6536 58.2429C38.6536 57.4954 38.6349 56.7852 38.5974 56.1125C38.5599 55.7761 38.5411 55.4771 38.5411 55.2155C38.5411 54.9164 38.5224 54.6174 38.4849 54.3184C38.4849 54.0568 38.4661 53.8139 38.4286 53.5896C38.4286 53.328 38.4286 53.1037 38.4286 52.9169C38.4286 52.73 38.4099 52.5618 38.3723 52.4123C38.3723 52.2628 38.3723 52.132 38.3723 52.0198V51.7395C38.3348 51.7395 38.3161 51.7582 38.3161 51.7956V52.0198C38.3161 52.132 38.2973 52.2628 38.2598 52.4123C38.2598 52.5618 38.2598 52.73 38.2598 52.9169C38.2598 53.1037 38.2411 53.328 38.2036 53.5896C38.2036 53.8139 38.2036 54.0568 38.2036 54.3184C38.1661 54.6174 38.1473 54.9164 38.1473 55.2155C38.1473 55.4771 38.1286 55.7761 38.0911 56.1125C38.0536 56.7852 38.0348 57.4954 38.0348 58.2429C38.0348 58.9904 38.0161 59.7753 37.9786 60.5975V61.887C37.9786 62.0739 37.9598 62.2794 37.9223 62.5037C37.9223 62.7279 37.9223 62.9522 37.9223 63.1764V68.3903C37.9223 68.5025 37.9223 68.6146 37.9223 68.7267C37.9598 68.8388 37.9786 68.9323 37.9786 69.007V70.9132C37.9786 71.3243 37.9786 71.7354 37.9786 72.1466C38.0161 72.5203 38.0348 72.8941 38.0348 73.2678C38.0348 73.679 38.0348 74.0714 38.0348 74.4452C38.0723 74.7815 38.0911 75.0992 38.0911 75.3982C38.1286 75.7346 38.1473 76.0523 38.1473 76.3513C38.1473 76.6503 38.1661 76.9306 38.2036 77.1923C38.2036 77.4913 38.2036 77.7529 38.2036 77.9772C38.2411 78.2014 38.2598 78.407 38.2598 78.5938C38.2598 78.7807 38.2598 78.9489 38.2598 79.0984C38.2973 79.2479 38.3161 79.3787 38.3161 79.4909V79.7712C38.3161 79.8086 38.3348 79.8272 38.3723 79.8272V79.4909C38.3723 79.3787 38.3723 79.2479 38.3723 79.0984C38.4099 78.9489 38.4286 78.7807 38.4286 78.5938C38.4286 78.407 38.4286 78.2014 38.4286 77.9772C38.4661 77.7529 38.4849 77.4913 38.4849 77.1923C38.5224 76.9306 38.5411 76.6503 38.5411 76.3513C38.5411 76.0523 38.5599 75.7346 38.5974 75.3982C38.5974 75.0992 38.5974 74.7815 38.5974 74.4452C38.6349 74.0714 38.6536 73.679 38.6536 73.2678C38.6536 72.8941 38.6536 72.5203 38.6536 72.1466C38.6911 71.7354 38.7099 71.3243 38.7099 70.9132V69.6798C38.7099 69.3808 38.7286 69.1565 38.7661 69.007V63.1764ZM51.0292 71.3056C50.9917 70.9319 50.973 70.5955 50.973 70.2965C50.973 69.9601 50.9542 69.6424 50.9167 69.3434C50.8792 68.7828 50.8229 68.3156 50.7479 67.9418C50.7479 67.8671 50.7292 67.7923 50.6917 67.7176C50.6917 67.6428 50.6917 67.5868 50.6917 67.5494V67.3812L50.6354 67.4373V67.5494C50.6354 67.5868 50.6167 67.6428 50.5792 67.7176C50.5792 67.7923 50.5792 67.8671 50.5792 67.9418C50.5042 68.3156 50.4479 68.7828 50.4104 69.3434C50.3729 69.6424 50.3542 69.9601 50.3542 70.2965C50.3542 70.5955 50.3354 70.9319 50.2979 71.3056V71.8663C50.2979 71.9784 50.2792 72.0905 50.2417 72.2026C50.2417 72.2774 50.2417 72.3521 50.2417 72.4269V74.7815C50.2417 74.8937 50.2604 74.9871 50.2979 75.0619V75.9028C50.2979 76.0897 50.2979 76.2579 50.2979 76.4074C50.3354 76.5569 50.3542 76.7251 50.3542 76.9119C50.3542 77.0988 50.3542 77.267 50.3542 77.4165C50.3917 77.566 50.4104 77.7155 50.4104 77.865C50.4479 78.0145 50.4667 78.164 50.4667 78.3135C50.4667 78.4257 50.4854 78.5378 50.5229 78.6499C50.5229 78.762 50.5229 78.8742 50.5229 78.9863C50.5604 79.0984 50.5792 79.1919 50.5792 79.2666C50.5792 79.3414 50.5792 79.4161 50.5792 79.4909C50.6167 79.5656 50.6354 79.6217 50.6354 79.659V79.7712C50.6354 79.8086 50.6542 79.8272 50.6917 79.8272V79.659C50.6917 79.6217 50.6917 79.5656 50.6917 79.4909C50.7292 79.4161 50.7479 79.3414 50.7479 79.2666C50.7479 79.1919 50.7479 79.0984 50.7479 78.9863C50.7854 78.8742 50.8042 78.762 50.8042 78.6499C50.8417 78.5378 50.8604 78.4257 50.8604 78.3135C50.8604 78.164 50.8792 78.0145 50.9167 77.865C50.9167 77.7155 50.9167 77.566 50.9167 77.4165C50.9542 77.267 50.973 77.0988 50.973 76.9119C50.973 76.7251 50.973 76.5569 50.973 76.4074C51.0105 76.2579 51.0292 76.0897 51.0292 75.9028V75.3422C51.0292 75.1927 51.048 75.0992 51.0855 75.0619V72.4269C51.0855 72.3521 51.0667 72.2774 51.0292 72.2026C51.0292 72.0905 51.0292 71.9784 51.0292 71.8663V71.3056Z" fill="#F4EDE8"/>
<path d="M73.7149 65.8675C74.3524 65.8675 74.8774 65.9983 75.2899 66.2599C74.8774 66.5216 74.5212 66.8766 74.2211 67.3251C73.9586 67.7736 73.7899 68.2595 73.7149 68.7828V77.2483C73.6774 78.4444 73.4148 79.5656 72.9273 80.6121C72.4773 81.6213 71.8585 82.5183 71.071 83.3032C70.2835 84.0507 69.3647 84.6487 68.3146 85.0972C67.2646 85.5457 66.1395 85.77 64.9394 85.77C63.7394 85.77 62.6143 85.5457 61.5643 85.0972C60.5142 84.6487 59.5954 84.0507 58.8079 83.3032C58.0204 82.5183 57.3828 81.6213 56.8953 80.6121C56.4453 79.5656 56.2015 78.4444 56.164 77.2483V68.7828C56.0515 67.6241 55.5265 66.7832 54.5889 66.2599C55.0015 65.9983 55.5265 65.8675 56.164 65.8675V55.0473C56.2015 53.8886 56.4453 52.786 56.8953 51.7395C57.3828 50.693 58.0204 49.796 58.8079 49.0485C59.5954 48.2636 60.5142 47.6469 61.5643 47.1984C62.6143 46.7499 63.7394 46.5256 64.9394 46.5256C66.1395 46.5256 67.2646 46.7499 68.3146 47.1984C69.3647 47.6469 70.2835 48.2636 71.071 49.0485C71.8585 49.796 72.4773 50.693 72.9273 51.7395C73.4148 52.786 73.6774 53.8886 73.7149 55.0473V65.8675ZM59.2017 63.8492C59.2017 63.6623 59.1829 63.4941 59.1454 63.3446C59.1454 63.1578 59.1454 62.9709 59.1454 62.784V61.7188C59.1079 61.0087 59.0892 60.3359 59.0892 59.7005C59.0892 59.0651 59.0704 58.4671 59.0329 57.9065C58.9954 57.6449 58.9767 57.3832 58.9767 57.1216C58.9767 56.86 58.9579 56.617 58.9204 56.3928C58.9204 56.1685 58.9017 55.963 58.8642 55.7761C58.8642 55.5892 58.8642 55.421 58.8642 55.2715C58.8642 55.0846 58.8454 54.9351 58.8079 54.823C58.8079 54.6735 58.8079 54.5614 58.8079 54.4866V54.2063C58.7704 54.2063 58.7516 54.225 58.7516 54.2624V54.4866C58.7516 54.5614 58.7329 54.6735 58.6954 54.823C58.6954 54.9351 58.6954 55.0846 58.6954 55.2715C58.6954 55.421 58.6766 55.5892 58.6391 55.7761C58.6391 55.963 58.6391 56.1685 58.6391 56.3928C58.6016 56.617 58.5829 56.86 58.5829 57.1216C58.5829 57.3832 58.5641 57.6449 58.5266 57.9065C58.4891 58.4671 58.4704 59.0651 58.4704 59.7005C58.4704 60.3359 58.4516 61.0087 58.4141 61.7188V62.784C58.4141 62.9709 58.3954 63.1578 58.3579 63.3446C58.3579 63.4941 58.3579 63.6623 58.3579 63.8492V68.2782C58.3579 68.5398 58.3766 68.7267 58.4141 68.8388V70.4647C58.4141 70.8011 58.4141 71.1374 58.4141 71.4738C58.4516 71.8102 58.4704 72.1279 58.4704 72.4269C58.4704 72.7633 58.4704 73.081 58.4704 73.38C58.5079 73.6416 58.5266 73.9219 58.5266 74.2209C58.5641 74.5199 58.5829 74.8002 58.5829 75.0619C58.5829 75.2861 58.6016 75.5104 58.6391 75.7346C58.6391 75.9589 58.6391 76.1644 58.6391 76.3513C58.6766 76.5382 58.6954 76.7251 58.6954 76.9119C58.6954 77.0988 58.6954 77.267 58.6954 77.4165C58.7329 77.5286 58.7516 77.6221 58.7516 77.6968V77.865C58.7516 77.9024 58.7704 77.9211 58.8079 77.9211V77.6968C58.8079 77.6221 58.8079 77.5286 58.8079 77.4165C58.8454 77.267 58.8642 77.0988 58.8642 76.9119C58.8642 76.7251 58.8642 76.5382 58.8642 76.3513C58.9017 76.1644 58.9204 75.9589 58.9204 75.7346C58.9579 75.5104 58.9767 75.2861 58.9767 75.0619C58.9767 74.8002 58.9954 74.5199 59.0329 74.2209C59.0329 73.9219 59.0329 73.6416 59.0329 73.38C59.0704 73.081 59.0892 72.7633 59.0892 72.4269C59.0892 72.1279 59.0892 71.8102 59.0892 71.4738C59.1267 71.1374 59.1454 70.8011 59.1454 70.4647V68.8388C59.1829 68.7267 59.2017 68.5398 59.2017 68.2782V63.8492ZM68.4834 55.2715C68.4834 54.7856 68.4646 54.1876 68.4271 53.4775C68.3896 52.7674 68.2584 52.0946 68.0333 51.4592C67.8083 50.8238 67.4521 50.2819 66.9645 49.8334C66.5145 49.3475 65.8395 49.1046 64.9394 49.1046C64.0394 49.1046 63.3456 49.3475 62.8581 49.8334C62.4081 50.2819 62.0706 50.8238 61.8455 51.4592C61.6205 52.0946 61.4893 52.7674 61.4518 53.4775C61.4143 54.1876 61.3955 54.7856 61.3955 55.2715V65.8675C62.0331 65.8675 62.5581 65.9983 62.9706 66.2599C62.0331 66.7832 61.508 67.6241 61.3955 68.7828V77.0241C61.3955 77.51 61.4143 78.108 61.4518 78.8181C61.4893 79.4909 61.6205 80.1636 61.8455 80.8364C62.0706 81.4718 62.4081 82.0137 62.8581 82.4622C63.3456 82.9107 64.0394 83.135 64.9394 83.135C65.8395 83.135 66.5145 82.9107 66.9645 82.4622C67.4521 82.0137 67.8083 81.4718 68.0333 80.8364C68.2584 80.1636 68.3896 79.4909 68.4271 78.8181C68.4646 78.108 68.4834 77.51 68.4834 77.0241V68.7828C68.4084 67.6615 67.8833 66.8206 66.9083 66.2599C67.3208 65.9983 67.8458 65.8675 68.4834 65.8675V55.2715ZM71.521 63.8492C71.521 63.6623 71.521 63.4941 71.521 63.3446C71.521 63.1578 71.5023 62.9709 71.4648 62.784V61.7188C71.4648 61.0087 71.446 60.3359 71.4085 59.7005C71.4085 59.0651 71.3898 58.4671 71.3522 57.9065C71.3147 57.6449 71.296 57.3832 71.296 57.1216C71.296 56.86 71.2772 56.617 71.2397 56.3928C71.2397 56.1685 71.221 55.963 71.1835 55.7761C71.1835 55.5892 71.1835 55.421 71.1835 55.2715C71.1835 55.0846 71.1647 54.9351 71.1272 54.823C71.1272 54.6735 71.1272 54.5614 71.1272 54.4866V54.2063C71.0897 54.2063 71.071 54.225 71.071 54.2624V54.4866C71.071 54.5614 71.071 54.6735 71.071 54.823C71.071 54.9351 71.0522 55.0846 71.0147 55.2715C71.0147 55.421 70.996 55.5892 70.9585 55.7761C70.9585 55.963 70.9585 56.1685 70.9585 56.3928C70.921 56.617 70.9022 56.86 70.9022 57.1216C70.9022 57.3832 70.8835 57.6449 70.846 57.9065C70.8085 58.4671 70.7897 59.0651 70.7897 59.7005C70.7897 60.3359 70.771 61.0087 70.7335 61.7188V63.8492C70.696 64.223 70.6772 64.5967 70.6772 64.9705C70.6772 65.3442 70.6772 65.718 70.6772 66.0917C70.6772 66.4655 70.6772 66.8392 70.6772 67.213C70.6772 67.5494 70.696 67.9044 70.7335 68.2782V70.4647C70.7335 70.8011 70.7335 71.1374 70.7335 71.4738C70.771 71.8102 70.7897 72.1279 70.7897 72.4269C70.7897 72.7633 70.7897 73.081 70.7897 73.38C70.8272 73.6416 70.846 73.9219 70.846 74.2209C70.8835 74.5199 70.9022 74.8002 70.9022 75.0619C70.9022 75.2861 70.921 75.5104 70.9585 75.7346C70.9585 75.9589 70.9585 76.1644 70.9585 76.3513C70.996 76.5382 71.0147 76.7251 71.0147 76.9119C71.0522 77.0988 71.071 77.267 71.071 77.4165C71.071 77.5286 71.071 77.6221 71.071 77.6968V77.865C71.071 77.9024 71.0897 77.9211 71.1272 77.9211V77.6968C71.1272 77.6221 71.1272 77.5286 71.1272 77.4165C71.1647 77.267 71.1835 77.0988 71.1835 76.9119C71.1835 76.7251 71.1835 76.5382 71.1835 76.3513C71.221 76.1644 71.2397 75.9589 71.2397 75.7346C71.2772 75.5104 71.296 75.2861 71.296 75.0619C71.296 74.8002 71.3147 74.5199 71.3522 74.2209C71.3522 73.9219 71.3522 73.6416 71.3522 73.38C71.3898 73.081 71.4085 72.7633 71.4085 72.4269C71.4085 72.1279 71.4085 71.8102 71.4085 71.4738C71.446 71.1374 71.4648 70.8011 71.4648 70.4647V69.3995C71.4648 69.3247 71.4648 69.2313 71.4648 69.1192C71.5023 69.007 71.521 68.9136 71.521 68.8388V63.8492Z" fill="#F4EDE8"/>
<path d="M94.5899 58.6353C94.5899 60.3172 94.1774 61.8309 93.3523 63.1764C92.5273 64.522 91.421 65.5685 90.0334 66.316C90.7085 66.8392 91.3272 67.4559 91.8898 68.1661C92.4523 68.8388 92.9211 69.5863 93.2961 70.4086C93.7086 71.2309 94.0274 72.0718 94.2524 72.9315C94.4774 73.7911 94.5899 74.632 94.5899 75.4543V79.0424C94.5524 80.2384 94.3086 81.3596 93.8586 82.4062C93.4086 83.4153 92.7898 84.3123 92.0023 85.0972C91.2147 85.8447 90.2959 86.4427 89.2459 86.8912C88.1958 87.3771 87.0708 87.62 85.8707 87.62H80.583C80.3205 87.62 80.0954 87.5266 79.9079 87.3397C79.7579 87.1528 79.6829 86.9286 79.6829 86.667C79.6829 86.9286 79.5892 87.1528 79.4017 87.3397C79.2141 87.5266 79.0079 87.62 78.7829 87.62H75.8015C75.8015 87.2837 75.8577 87.0407 75.9702 86.8912C76.1203 86.7417 76.2703 86.5735 76.4203 86.3867C76.5703 86.2371 76.7015 86.0129 76.814 85.7139C76.964 85.4149 77.039 84.9477 77.039 84.3123V68.6706C76.9265 67.5494 76.4015 66.7271 75.464 66.2039C75.9515 65.9049 76.4765 65.7554 77.039 65.7554V47.3105C77.039 46.6751 76.964 46.208 76.814 45.9089C76.7015 45.6099 76.5703 45.3857 76.4203 45.2362C76.2703 45.0493 76.1203 44.8811 75.9702 44.7316C75.8577 44.5821 75.8015 44.3392 75.8015 44.0028H78.7829C79.0079 44.0028 79.2141 44.0962 79.4017 44.2831C79.5892 44.4326 79.6829 44.6382 79.6829 44.8998C79.6829 44.3018 79.9829 44.0028 80.583 44.0028H85.8707C87.0708 44.0028 88.1958 44.227 89.2459 44.6756C90.2959 45.1241 91.2147 45.7408 92.0023 46.5256C92.7898 47.2732 93.4086 48.1702 93.8586 49.2167C94.3086 50.2632 94.5524 51.3658 94.5899 52.5244V58.6353ZM80.0767 62.784C80.0767 62.5224 80.0579 62.2794 80.0204 62.0552C80.0204 61.7935 80.0204 61.5506 80.0204 61.3264V59.8687C79.9829 58.8969 79.9642 57.9812 79.9642 57.1216C79.9642 56.262 79.9454 55.4584 79.9079 54.7109C79.8704 54.2998 79.8517 53.926 79.8517 53.5896C79.8517 53.2532 79.8329 52.9355 79.7954 52.6365C79.7954 52.3375 79.7767 52.0572 79.7392 51.7956C79.7392 51.4966 79.7392 51.2536 79.7392 51.0668C79.7392 50.8425 79.7204 50.637 79.6829 50.4501C79.6829 50.2632 79.6829 50.1137 79.6829 50.0016V49.6652C79.6454 49.7026 79.6267 49.7399 79.6267 49.7773V50.0016C79.6267 50.1137 79.6079 50.2632 79.5704 50.4501C79.5704 50.637 79.5704 50.8425 79.5704 51.0668C79.5704 51.2536 79.5517 51.4966 79.5142 51.7956C79.5142 52.0572 79.5142 52.3375 79.5142 52.6365C79.4767 52.9355 79.4579 53.2532 79.4579 53.5896C79.4579 53.926 79.4392 54.2998 79.4017 54.7109C79.3642 55.4584 79.3454 56.262 79.3454 57.1216C79.3454 57.9812 79.3267 58.8969 79.2892 59.8687V61.3264C79.2892 61.5506 79.2892 61.7935 79.2892 62.0552C79.2892 62.2794 79.2704 62.5224 79.2329 62.784V68.7828C79.2329 68.9323 79.2329 69.0631 79.2329 69.1752C79.2704 69.2873 79.2892 69.4182 79.2892 69.5677V71.6981C79.2892 72.1839 79.2892 72.6698 79.2892 73.1557C79.3267 73.6042 79.3454 74.034 79.3454 74.4452C79.3454 74.8563 79.3454 75.2674 79.3454 75.6786C79.3829 76.0897 79.4017 76.5008 79.4017 76.9119C79.4392 77.0988 79.4579 77.2857 79.4579 77.4726C79.4579 77.6221 79.4579 77.7903 79.4579 77.9772C79.4579 78.164 79.4579 78.3322 79.4579 78.4817C79.4954 78.6312 79.5142 78.7807 79.5142 78.9302C79.5142 79.2292 79.5142 79.5282 79.5142 79.8272C79.5517 80.0889 79.5704 80.3318 79.5704 80.5561C79.5704 80.7803 79.5704 80.9859 79.5704 81.1728C79.6079 81.3223 79.6267 81.4531 79.6267 81.5652V81.8455C79.6267 81.8829 79.6454 81.9203 79.6829 81.9576V81.5652C79.6829 81.4531 79.6829 81.3223 79.6829 81.1728C79.7204 80.9859 79.7392 80.7803 79.7392 80.5561C79.7392 80.3318 79.7392 80.0889 79.7392 79.8272C79.7767 79.5282 79.7954 79.2292 79.7954 78.9302C79.8329 78.7807 79.8517 78.6312 79.8517 78.4817C79.8517 78.3322 79.8517 78.164 79.8517 77.9772C79.8517 77.7903 79.8517 77.6221 79.8517 77.4726C79.8892 77.2857 79.9079 77.0988 79.9079 76.9119C79.9079 76.5008 79.9079 76.0897 79.9079 75.6786C79.9454 75.2674 79.9642 74.8563 79.9642 74.4452C79.9642 74.034 79.9642 73.6042 79.9642 73.1557C80.0017 72.6698 80.0204 72.1839 80.0204 71.6981V70.2965C80.0204 69.9601 80.0392 69.7172 80.0767 69.5677V62.784ZM91.6647 77.9211C91.6272 78.0332 91.6085 78.2201 91.6085 78.4817V79.4909C91.6085 79.6777 91.5897 79.8459 91.5522 79.9954C91.5522 80.1449 91.5522 80.2944 91.5522 80.4439C91.5522 80.5934 91.5335 80.7243 91.496 80.8364C91.496 80.9485 91.496 81.0606 91.496 81.1728V81.341C91.4585 81.3783 91.4397 81.4344 91.4397 81.5091V81.7895C91.4022 81.8268 91.3835 81.8642 91.3835 81.9016V82.0137C91.3835 82.0511 91.3647 82.0885 91.3272 82.1258C91.3272 82.1258 91.3272 82.1445 91.3272 82.1819C91.3272 82.2193 91.3085 82.2567 91.271 82.294H91.3272C91.3272 82.294 91.346 82.2567 91.3835 82.1819C91.3835 82.1819 91.4022 82.1445 91.4397 82.0698C91.4772 82.0324 91.496 81.995 91.496 81.9576C91.5335 81.9203 91.5522 81.8829 91.5522 81.8455C91.5897 81.8081 91.6085 81.7708 91.6085 81.7334C91.646 81.696 91.6647 81.64 91.6647 81.5652C91.7398 81.4905 91.7773 81.397 91.7773 81.2849C91.8523 81.1354 91.9273 80.8738 92.0023 80.5C92.0773 80.2757 92.1148 80.1262 92.1148 80.0515C92.1523 79.9767 92.171 79.902 92.171 79.8272C92.171 79.7151 92.1898 79.6217 92.2273 79.5469C92.2273 79.4722 92.2273 79.3974 92.2273 79.3227C92.2648 79.2105 92.2835 79.1171 92.2835 79.0424C92.321 78.9302 92.3398 78.762 92.3398 78.5378C92.3773 78.3509 92.396 78.164 92.396 77.9772C92.396 77.7903 92.4148 77.6034 92.4523 77.4165V75.0619C92.4523 74.875 92.4335 74.6881 92.396 74.5012C92.396 74.3144 92.3773 74.1275 92.3398 73.9406C92.3398 73.7163 92.321 73.5482 92.2835 73.436C92.2835 73.3613 92.2648 73.2865 92.2273 73.2118C92.2273 73.0996 92.2273 73.0062 92.2273 72.9315C92.1898 72.8567 92.171 72.782 92.171 72.7072C92.171 72.5951 92.1523 72.5016 92.1148 72.4269C92.1148 72.3521 92.096 72.2774 92.0585 72.2026C92.0585 72.1279 92.0585 72.0531 92.0585 71.9784C91.9835 71.7541 91.946 71.6233 91.946 71.5859C91.9085 71.4738 91.8523 71.343 91.7773 71.1935C91.7773 71.0814 91.7398 70.9879 91.6647 70.9132C91.6647 70.8011 91.6272 70.7076 91.5522 70.6329C91.4772 70.4834 91.421 70.3712 91.3835 70.2965C91.346 70.2591 91.3272 70.2217 91.3272 70.1844H91.271C91.271 70.1844 91.2897 70.2217 91.3272 70.2965C91.3272 70.3339 91.3272 70.3712 91.3272 70.4086C91.3647 70.4086 91.3835 70.4273 91.3835 70.4647C91.3835 70.5394 91.4022 70.6142 91.4397 70.6889V70.9692C91.4772 71.044 91.496 71.1374 91.496 71.2496C91.496 71.4364 91.5147 71.5673 91.5522 71.642V72.0344C91.5897 72.1839 91.6085 72.3334 91.6085 72.483C91.6085 72.6325 91.6085 72.8006 91.6085 72.9875V73.4921C91.6085 73.5668 91.6085 73.6603 91.6085 73.7724C91.646 73.8472 91.6647 73.9219 91.6647 73.9967V77.9211ZM89.3584 75.4543C89.3584 74.9684 89.3396 74.277 89.3021 73.38C89.2646 72.483 89.1334 71.5859 88.9084 70.6889C88.6834 69.7919 88.3271 69.0257 87.8396 68.3903C87.3895 67.7176 86.7145 67.3812 85.8145 67.3812H83.7894C83.3769 67.3812 83.0206 67.5307 82.7206 67.8297C82.4206 68.1287 82.2705 68.4838 82.2705 68.8949V83.4714C82.2705 83.8825 82.4206 84.2376 82.7206 84.5366C83.0206 84.7982 83.3769 84.9477 83.7894 84.9851H85.8145C86.7145 84.9851 87.3895 84.7608 87.8396 84.3123C88.3271 83.8264 88.6834 83.2658 88.9084 82.6304C89.1334 81.995 89.2646 81.3223 89.3021 80.6121C89.3396 79.902 89.3584 79.304 89.3584 78.8181V75.4543ZM89.3584 52.7487C89.3584 52.2628 89.3396 51.6835 89.3021 51.0107C89.2646 50.3006 89.1334 49.6278 88.9084 48.9924C88.6834 48.357 88.3271 47.8151 87.8396 47.3666C87.3895 46.8807 86.7145 46.6378 85.8145 46.6378H83.7894C83.3769 46.6378 83.0206 46.7873 82.7206 47.0863C82.4206 47.3853 82.2705 47.7403 82.2705 48.1515V63.2325C82.2705 63.6436 82.4206 63.9987 82.7206 64.2977C83.0206 64.5967 83.3769 64.7462 83.7894 64.7462H85.8145C86.7145 64.7462 87.3895 64.522 87.8396 64.0735C88.3271 63.625 88.6834 63.083 88.9084 62.4476C89.1334 61.7749 89.2646 61.1021 89.3021 60.4293C89.3396 59.7192 89.3584 59.1212 89.3584 58.6353V52.7487ZM91.8898 60.149C91.9648 59.9248 92.0023 59.7753 92.0023 59.7005C92.0773 59.551 92.1148 59.4015 92.1148 59.252C92.1523 59.1773 92.171 59.1025 92.171 59.0278C92.171 58.9156 92.1898 58.8222 92.2273 58.7474C92.2273 58.6727 92.2273 58.5979 92.2273 58.5232C92.2648 58.4111 92.2835 58.2989 92.2835 58.1868C92.321 58.0747 92.3398 57.8878 92.3398 57.6262C92.3773 57.4393 92.396 57.2524 92.396 57.0655C92.396 56.8787 92.4148 56.6918 92.4523 56.5049V55.2715C92.4523 54.8604 92.4523 54.4679 92.4523 54.0942C92.4523 53.6831 92.4335 53.2906 92.396 52.9169C92.3585 52.8047 92.3398 52.7113 92.3398 52.6365C92.3398 52.5244 92.321 52.431 92.2835 52.3562C92.2835 52.0946 92.2648 51.9077 92.2273 51.7956C92.1898 51.6087 92.1523 51.4405 92.1148 51.291C92.1148 51.1415 92.096 50.992 92.0585 50.8425C91.9835 50.6183 91.946 50.4688 91.946 50.394C91.871 50.2445 91.8335 50.1324 91.8335 50.0576C91.7585 49.9081 91.7023 49.796 91.6647 49.7213C91.6647 49.6091 91.6272 49.5157 91.5522 49.4409C91.5147 49.3288 91.4585 49.198 91.3835 49.0485L91.271 48.9364V48.9924C91.271 49.0298 91.271 49.0485 91.271 49.0485C91.3085 49.0485 91.3272 49.0672 91.3272 49.1046C91.3647 49.1419 91.3835 49.198 91.3835 49.2727C91.3835 49.3475 91.4022 49.4222 91.4397 49.497V49.7773C91.4772 49.8521 91.496 49.9642 91.496 50.1137C91.496 50.1884 91.496 50.2632 91.496 50.3379C91.5335 50.3753 91.5522 50.4314 91.5522 50.5061V50.8986C91.5897 51.0481 91.6085 51.1976 91.6085 51.3471C91.6085 51.4966 91.6085 51.6648 91.6085 51.8517V52.4123C91.6085 52.487 91.6085 52.5805 91.6085 52.6926C91.646 52.7674 91.6647 52.8421 91.6647 52.9169V57.0655C91.6272 57.1777 91.6085 57.3645 91.6085 57.6262V58.6914C91.6085 58.8783 91.5897 59.0464 91.5522 59.1959C91.5522 59.3455 91.5522 59.495 91.5522 59.6445C91.5522 59.794 91.5335 59.9435 91.496 60.093C91.496 60.2051 91.496 60.3172 91.496 60.4293C91.496 60.6162 91.4772 60.7283 91.4397 60.7657V61.1021C91.4022 61.1021 91.3835 61.1395 91.3835 61.2142V61.3264C91.3835 61.3637 91.3647 61.4011 91.3272 61.4385C91.3272 61.4385 91.3272 61.4572 91.3272 61.4945C91.3272 61.5319 91.3085 61.5693 91.271 61.6067L91.3835 61.4945C91.3835 61.4572 91.3835 61.4385 91.3835 61.4385C91.421 61.4011 91.4397 61.3637 91.4397 61.3264C91.4772 61.3264 91.496 61.289 91.496 61.2142C91.5335 61.2142 91.5522 61.1769 91.5522 61.1021C91.5897 61.1021 91.6085 61.0647 91.6085 60.99C91.646 60.9526 91.6647 60.8965 91.6647 60.8218C91.7398 60.747 91.7773 60.6536 91.7773 60.5415C91.8523 60.3172 91.8898 60.1864 91.8898 60.149Z" fill="#F4EDE8"/>
<path d="M115.867 82.4062C116.017 83.0415 116.186 83.5087 116.373 83.8077C116.561 84.1067 116.748 84.3497 116.936 84.5366C117.123 84.7234 117.292 84.8916 117.442 85.0411C117.592 85.1906 117.705 85.4336 117.78 85.77H114.798C114.536 85.77 114.292 85.6765 114.067 85.4896C113.879 85.3028 113.767 85.0785 113.729 84.8169C113.767 85.0785 113.711 85.3028 113.561 85.4896C113.411 85.6765 113.223 85.77 112.998 85.77H110.017C109.942 85.4336 109.961 85.1906 110.073 85.0411C110.186 84.8916 110.298 84.7421 110.411 84.5926C110.523 84.4057 110.617 84.1628 110.692 83.8638C110.767 83.5274 110.748 83.0229 110.636 82.3501V82.294L109.398 75.9589C109.323 75.5851 109.117 75.2674 108.779 75.0058C108.442 74.7068 108.067 74.5573 107.654 74.5573H103.773C103.36 74.5573 102.985 74.7068 102.648 75.0058C102.31 75.2674 102.104 75.5851 102.029 75.9589L100.848 82.294V82.3501C100.735 83.0229 100.698 83.5274 100.735 83.8638C100.81 84.1628 100.904 84.4057 101.016 84.5926C101.166 84.7421 101.279 84.8916 101.354 85.0411C101.466 85.1906 101.504 85.4336 101.466 85.77H98.4849C98.2224 85.77 98.0162 85.6765 97.8662 85.4896C97.7162 85.3028 97.6599 85.0785 97.6974 84.8169C97.6599 85.0785 97.5474 85.3028 97.3599 85.4896C97.1724 85.6765 96.9474 85.77 96.6849 85.77H93.7035C93.741 85.4336 93.8347 85.1906 93.9847 85.0411C94.1347 84.8916 94.3035 84.7234 94.491 84.5366C94.6785 84.3497 94.866 84.1067 95.0535 83.8077C95.241 83.5087 95.4098 83.0415 95.5598 82.4062L98.0912 68.7828C98.1662 68.2595 98.1099 67.7736 97.9224 67.3251C97.7349 66.8766 97.4349 66.5216 97.0224 66.2599C97.6224 65.9983 98.1662 65.8675 98.6537 65.8675L101.691 49.8894C101.804 49.2541 101.823 48.7869 101.748 48.4879C101.673 48.1515 101.579 47.9085 101.466 47.759C101.354 47.5722 101.241 47.404 101.129 47.2545C101.016 47.105 100.998 46.862 101.073 46.5256H104.841C105.404 46.6004 105.685 46.9181 105.685 47.4787C105.685 47.2171 105.76 47.0115 105.91 46.862C106.098 46.6751 106.304 46.563 106.529 46.5256H110.354C110.429 46.862 110.411 47.105 110.298 47.2545C110.223 47.404 110.129 47.5722 110.017 47.759C109.904 47.9085 109.81 48.1515 109.735 48.4879C109.66 48.7869 109.679 49.2541 109.792 49.8894L112.773 65.8675C113.073 65.8675 113.354 65.9049 113.617 65.9796C113.879 66.0544 114.142 66.1478 114.404 66.2599C113.579 66.7832 113.223 67.6241 113.336 68.7828L115.867 82.4062ZM102.366 62.3355C102.441 62.1112 102.479 61.9057 102.479 61.7188C102.516 61.4945 102.554 61.289 102.591 61.1021C102.779 60.2425 102.929 59.4389 103.041 58.6914C103.154 57.9065 103.266 57.1964 103.379 56.561C103.454 56.262 103.491 55.963 103.491 55.664C103.529 55.365 103.566 55.066 103.604 54.7669C103.641 54.5053 103.679 54.2624 103.716 54.0381C103.754 53.8139 103.791 53.6083 103.829 53.4214C103.866 53.2346 103.885 53.0664 103.885 52.9169C103.885 52.73 103.904 52.5805 103.941 52.4684V52.2441L103.885 52.4684C103.848 52.5805 103.81 52.7113 103.773 52.8608C103.735 53.0103 103.698 53.1785 103.66 53.3654C103.585 53.5522 103.529 53.7765 103.491 54.0381C103.454 54.2624 103.398 54.4866 103.323 54.7109C103.248 55.0099 103.173 55.3089 103.098 55.6079C103.06 55.9069 103.004 56.2059 102.929 56.5049C102.741 57.1403 102.554 57.8317 102.366 58.5793C102.216 59.2894 102.048 60.0743 101.86 60.9339C101.86 61.1582 101.841 61.3637 101.804 61.5506C101.766 61.7375 101.71 61.9431 101.635 62.1673C101.598 62.3916 101.56 62.6158 101.523 62.8401C101.485 63.0269 101.448 63.2325 101.41 63.4568C101.298 63.8679 101.185 64.2977 101.073 64.7462C100.998 65.1947 100.923 65.6432 100.848 66.0917C100.773 66.5029 100.679 66.9327 100.566 67.3812C100.491 67.8297 100.416 68.2595 100.341 68.6706C100.304 68.7828 100.285 68.8949 100.285 69.007C100.285 69.0818 100.266 69.1752 100.229 69.2873C100.154 69.5863 100.116 69.8106 100.116 69.9601C100.004 70.3339 99.9288 70.745 99.8913 71.1935C99.8163 71.6046 99.7413 72.0158 99.6663 72.4269C99.5912 72.838 99.535 73.2118 99.4975 73.5482C99.385 74.4078 99.2725 75.1179 99.16 75.6786C99.085 75.9776 99.0287 76.2766 98.9912 76.5756C98.9537 76.8746 98.9162 77.1736 98.8787 77.4726C98.8037 77.7342 98.7475 77.9958 98.71 78.2575C98.71 78.4817 98.6912 78.6873 98.6537 78.8742C98.6162 79.061 98.5975 79.2292 98.5975 79.3787C98.5975 79.5282 98.5787 79.6591 98.5412 79.7712C98.5412 79.8459 98.5225 79.902 98.4849 79.9394C98.4849 79.9394 98.4849 79.9581 98.4849 79.9954V80.0515C98.5225 80.0515 98.5412 80.0328 98.5412 79.9954C98.5412 79.9207 98.56 79.8459 98.5975 79.7712C98.635 79.6964 98.6537 79.5843 98.6537 79.4348C98.6912 79.2479 98.7475 79.061 98.8225 78.8742C98.8975 78.6873 98.9537 78.4817 98.9912 78.2575C99.0662 78.0332 99.1412 77.7903 99.2162 77.5286C99.2912 77.267 99.3475 76.9867 99.385 76.6877C99.46 76.3887 99.5162 76.0897 99.5537 75.7907C99.6287 75.4917 99.7038 75.174 99.7788 74.8376C99.8913 74.4639 99.985 74.0901 100.06 73.7163C100.135 73.3426 100.21 72.9501 100.285 72.539C100.398 72.1279 100.51 71.7168 100.623 71.3056C100.66 71.1187 100.698 70.9319 100.735 70.745C100.773 70.5207 100.81 70.3152 100.848 70.1283L101.016 69.4555C101.054 69.3434 101.073 69.2313 101.073 69.1192C101.073 69.007 101.091 68.8949 101.129 68.7828C101.204 68.3716 101.298 67.9605 101.41 67.5494C101.523 67.1009 101.616 66.6524 101.691 66.2039C101.766 65.7927 101.841 65.3629 101.916 64.9144C101.991 64.4659 102.066 64.0361 102.141 63.6249C102.179 63.4007 102.216 63.1764 102.254 62.9522C102.291 62.7279 102.329 62.5224 102.366 62.3355ZM107.148 71.9223C107.56 71.8849 107.879 71.7354 108.104 71.4738C108.367 71.1748 108.46 70.8197 108.385 70.4086L108.048 68.7828C107.898 68.2595 107.635 67.7736 107.26 67.3251C106.923 66.8766 106.51 66.5216 106.023 66.2599C106.473 65.9983 106.96 65.8675 107.485 65.8675L105.685 56.2807L103.885 65.8675C104.373 65.8675 104.879 65.9983 105.404 66.2599C104.879 66.5216 104.429 66.8766 104.054 67.3251C103.716 67.7736 103.491 68.2595 103.379 68.7828L103.098 70.4086C103.023 70.8197 103.098 71.1748 103.323 71.4738C103.548 71.7354 103.848 71.8849 104.223 71.9223H107.148ZM112.829 79.7712C112.829 79.8459 112.829 79.902 112.829 79.9394C112.867 79.9394 112.886 79.9581 112.886 79.9954V79.7712C112.848 79.6591 112.829 79.5282 112.829 79.3787C112.829 79.2292 112.811 79.061 112.773 78.8742C112.736 78.6873 112.698 78.4817 112.661 78.2575C112.661 77.9958 112.623 77.7342 112.548 77.4726C112.511 77.1736 112.473 76.8746 112.436 76.5756C112.398 76.2766 112.342 75.9776 112.267 75.6786C112.154 75.1179 112.042 74.4078 111.929 73.5482C111.854 73.2118 111.779 72.838 111.704 72.4269C111.667 72.0158 111.611 71.6046 111.536 71.1935C111.461 70.9692 111.404 70.7637 111.367 70.5768C111.367 70.3899 111.329 70.1844 111.254 69.9601C111.254 69.8106 111.217 69.5863 111.142 69.2873C111.142 69.1752 111.123 69.0818 111.086 69.007C111.086 68.8949 111.086 68.7828 111.086 68.6706C111.011 68.2595 110.917 67.8297 110.804 67.3812C110.729 66.9327 110.654 66.5029 110.579 66.0917C110.504 65.6432 110.411 65.1947 110.298 64.7462C110.223 64.2977 110.129 63.8679 110.017 63.4568C109.979 63.2325 109.942 63.0269 109.904 62.8401C109.867 62.6158 109.829 62.3916 109.792 62.1673C109.717 61.9431 109.66 61.7375 109.623 61.5506C109.585 61.3637 109.548 61.1582 109.51 60.9339C109.323 60.0743 109.135 59.2894 108.948 58.5793C108.798 57.8317 108.667 57.1403 108.554 56.5049C108.479 56.2059 108.404 55.9069 108.329 55.6079C108.254 55.3089 108.179 55.0099 108.104 54.7109C108.029 54.4866 107.954 54.2624 107.879 54.0381C107.842 53.7765 107.785 53.5522 107.71 53.3654C107.673 53.1785 107.635 53.0103 107.598 52.8608C107.56 52.7113 107.523 52.5805 107.485 52.4684L107.429 52.2441V52.4684C107.467 52.6552 107.523 52.9729 107.598 53.4214C107.598 53.6083 107.617 53.8139 107.654 54.0381C107.692 54.2624 107.729 54.5053 107.767 54.7669C107.804 55.066 107.842 55.365 107.879 55.664C107.917 55.963 107.973 56.262 108.048 56.561C108.16 57.1964 108.273 57.9065 108.385 58.6914C108.498 59.4389 108.629 60.2425 108.779 61.1021C108.817 61.289 108.835 61.4945 108.835 61.7188C108.873 61.9057 108.929 62.1112 109.004 62.3355C109.042 62.5224 109.079 62.7279 109.117 62.9522C109.154 63.1764 109.192 63.4007 109.229 63.6249C109.304 64.0361 109.379 64.4659 109.454 64.9144C109.567 65.3629 109.66 65.7927 109.735 66.2039C109.81 66.6524 109.904 67.1009 110.017 67.5494C110.129 67.9605 110.223 68.3716 110.298 68.7828C110.336 68.8949 110.354 69.007 110.354 69.1192C110.354 69.2313 110.373 69.3434 110.411 69.4555L110.579 70.1283C110.617 70.3152 110.654 70.5207 110.692 70.745C110.729 70.9319 110.767 71.1187 110.804 71.3056C110.917 71.7168 111.011 72.1279 111.086 72.539C111.161 72.9501 111.236 73.3426 111.311 73.7163C111.386 74.0901 111.461 74.4639 111.536 74.8376C111.648 75.174 111.742 75.4917 111.817 75.7907C111.892 76.0897 111.967 76.3887 112.042 76.6877C112.117 76.9867 112.192 77.267 112.267 77.5286C112.379 78.0519 112.492 78.5004 112.604 78.8742C112.679 79.061 112.717 79.2479 112.717 79.4348C112.754 79.5843 112.792 79.6964 112.829 79.7712Z" fill="#F4EDE8"/>
<path d="M139.469 88.1246C139.882 88.1994 140.163 88.3302 140.313 88.5171C140.5 88.7039 140.632 88.8908 140.707 89.0777C140.782 89.3019 140.819 89.5449 140.819 89.8065C139.619 89.8065 138.494 89.657 137.444 89.358C136.394 89.059 135.456 88.5731 134.631 87.9004C133.844 87.2276 133.206 86.3493 132.719 85.2654C132.269 84.1815 132.044 82.8547 132.044 81.2849V73.6042C132.044 73.1183 132.025 72.5203 131.987 71.8102C131.95 71.1001 131.819 70.4273 131.594 69.7919C131.369 69.1565 131.012 68.6146 130.525 68.1661C130.075 67.6802 129.4 67.4373 128.5 67.4373H126.193C125.856 67.512 125.556 67.6989 125.293 67.9979C125.068 68.2595 124.956 68.5772 124.956 68.951V82.3501C124.956 83.0229 125.012 83.5274 125.125 83.8638C125.275 84.1628 125.425 84.4057 125.575 84.5926C125.725 84.7421 125.856 84.8916 125.968 85.0411C126.118 85.1906 126.193 85.4336 126.193 85.77H123.212C122.987 85.77 122.781 85.6765 122.593 85.4896C122.406 85.3028 122.312 85.0972 122.312 84.8729C122.312 85.0972 122.218 85.3028 122.031 85.4896C121.881 85.6765 121.674 85.77 121.412 85.77H118.487C118.487 85.4336 118.543 85.1906 118.655 85.0411C118.805 84.8916 118.956 84.7421 119.106 84.5926C119.256 84.4057 119.387 84.1628 119.499 83.8638C119.649 83.5648 119.724 83.0976 119.724 82.4622V68.7828C119.612 67.6241 119.087 66.7832 118.149 66.2599C118.562 65.9983 119.087 65.8675 119.724 65.8675V49.8334C119.724 49.198 119.649 48.7308 119.499 48.4318C119.387 48.1328 119.256 47.9085 119.106 47.759C118.956 47.5722 118.805 47.404 118.655 47.2545C118.543 47.105 118.487 46.862 118.487 46.5256H121.468C121.693 46.5256 121.899 46.6191 122.087 46.806C122.274 46.9555 122.368 47.161 122.368 47.4227C122.368 46.8246 122.668 46.5256 123.268 46.5256H128.556C129.756 46.5256 130.881 46.7499 131.931 47.1984C132.981 47.6469 133.9 48.2636 134.688 49.0485C135.475 49.796 136.094 50.693 136.544 51.7395C136.994 52.786 137.238 53.8886 137.275 55.0473V58.6914C137.275 60.2612 136.9 61.7001 136.15 63.0083C135.4 64.3164 134.388 65.3629 133.112 66.1478C134.388 66.8953 135.4 67.9418 136.15 69.2873C136.9 70.5955 137.275 72.0344 137.275 73.6042V81.0606C137.275 81.8455 137.275 82.6491 137.275 83.4714C137.313 84.2562 137.406 84.9851 137.556 85.6578C137.706 86.2932 137.931 86.8352 138.231 87.2837C138.531 87.7322 138.944 88.0125 139.469 88.1246ZM134.35 57.7383C134.312 57.8131 134.294 57.9065 134.294 58.0186V59.3081C134.256 59.4576 134.237 59.6071 134.237 59.7566C134.237 59.8687 134.237 59.9808 134.237 60.093C134.237 60.1677 134.219 60.2238 134.181 60.2612C134.181 60.2985 134.181 60.3546 134.181 60.4293V60.7657C134.144 60.8405 134.125 60.9339 134.125 61.046C134.125 61.1208 134.106 61.1955 134.069 61.2703C134.069 61.345 134.05 61.4011 134.012 61.4385V61.5506L133.956 61.6627C133.956 61.6627 133.994 61.644 134.069 61.6067V61.5506L134.125 61.4945C134.162 61.4572 134.181 61.4385 134.181 61.4385C134.181 61.4011 134.2 61.3637 134.237 61.3264C134.275 61.2516 134.312 61.1769 134.35 61.1021C134.387 60.99 134.425 60.8965 134.463 60.8218C134.5 60.747 134.519 60.7097 134.519 60.7097C134.519 60.6723 134.537 60.6162 134.575 60.5415C134.613 60.4667 134.631 60.4107 134.631 60.3733C134.631 60.2985 134.65 60.2238 134.688 60.149C134.725 60.0743 134.744 60.0182 134.744 59.9808C134.744 59.9435 134.763 59.8874 134.8 59.8126C134.8 59.7379 134.8 59.6818 134.8 59.6445C134.838 59.5697 134.856 59.495 134.856 59.4202C134.894 59.2707 134.913 59.1212 134.913 58.9717C134.95 58.8222 134.988 58.6727 135.025 58.5232C135.063 58.4111 135.081 58.2429 135.081 58.0186C135.081 57.9439 135.081 57.8691 135.081 57.7944C135.119 57.7196 135.138 57.6449 135.138 57.5701V55.6079C135.138 55.3836 135.119 55.2155 135.081 55.1033V54.8791C135.081 54.8043 135.063 54.7669 135.025 54.7669C135.025 54.7296 135.025 54.6735 135.025 54.5988C135.025 54.4119 134.988 54.1316 134.913 53.7578C134.875 53.6831 134.856 53.6083 134.856 53.5336C134.856 53.4588 134.838 53.3841 134.8 53.3093C134.8 53.2719 134.781 53.2532 134.744 53.2532C134.744 53.2159 134.744 53.1785 134.744 53.1411C134.744 53.1037 134.725 53.0851 134.688 53.0851C134.688 53.0477 134.688 53.0103 134.688 52.9729C134.65 52.8982 134.631 52.8421 134.631 52.8047C134.631 52.7674 134.613 52.7113 134.575 52.6365C134.537 52.5618 134.519 52.5057 134.519 52.4684C134.519 52.431 134.5 52.3749 134.463 52.3002C134.425 52.2628 134.406 52.2254 134.406 52.188C134.406 52.1507 134.387 52.1133 134.35 52.0759C134.275 51.9264 134.237 51.8517 134.237 51.8517C134.2 51.8143 134.181 51.7956 134.181 51.7956C134.181 51.7582 134.162 51.7208 134.125 51.6835C134.087 51.6461 134.069 51.6087 134.069 51.5713C134.031 51.534 134.012 51.4966 134.012 51.4592H133.956C133.956 51.4592 133.975 51.4966 134.012 51.5713V51.6835C134.05 51.7208 134.069 51.7956 134.069 51.9077C134.069 51.9451 134.069 51.9825 134.069 52.0198C134.106 52.0198 134.125 52.0572 134.125 52.132C134.125 52.2441 134.144 52.3375 134.181 52.4123V52.6926C134.181 52.7674 134.181 52.8234 134.181 52.8608C134.219 52.8982 134.237 52.9542 134.237 53.029C134.237 53.3654 134.256 53.627 134.294 53.8139V54.7109C134.331 54.8978 134.35 55.1968 134.35 55.6079V57.7383ZM122.762 63.5128C122.762 63.3259 122.743 63.1204 122.706 62.8961C122.706 62.6719 122.706 62.4476 122.706 62.2234V60.99C122.668 60.1677 122.649 59.3828 122.649 58.6353C122.649 57.8878 122.631 57.1777 122.593 56.5049C122.556 56.2059 122.537 55.9069 122.537 55.6079C122.537 55.3089 122.518 55.0286 122.481 54.7669C122.481 54.4679 122.462 54.2063 122.424 53.9821C122.424 53.7578 122.424 53.5522 122.424 53.3654C122.424 53.1785 122.406 53.0103 122.368 52.8608C122.368 52.7113 122.368 52.5805 122.368 52.4684V52.188C122.331 52.188 122.312 52.2067 122.312 52.2441V52.4684C122.312 52.5805 122.293 52.7113 122.256 52.8608C122.256 53.0103 122.256 53.1785 122.256 53.3654C122.256 53.5522 122.237 53.7578 122.199 53.9821C122.199 54.2063 122.199 54.4679 122.199 54.7669C122.162 55.0286 122.143 55.3089 122.143 55.6079C122.143 55.9069 122.124 56.2059 122.087 56.5049C122.049 57.1777 122.031 57.8878 122.031 58.6353C122.031 59.3828 122.012 60.1677 121.974 60.99V62.2234C121.974 62.4476 121.956 62.6719 121.918 62.8961C121.918 63.1204 121.918 63.3259 121.918 63.5128V68.7267C121.918 69.0257 121.937 69.25 121.974 69.3995V71.2496C121.974 71.6607 121.974 72.0718 121.974 72.483C122.012 72.8567 122.031 73.2305 122.031 73.6042C122.031 74.0153 122.031 74.3891 122.031 74.7255C122.068 75.0619 122.087 75.3982 122.087 75.7346C122.124 76.071 122.143 76.3887 122.143 76.6877C122.143 76.9493 122.162 77.2296 122.199 77.5286C122.199 77.7903 122.199 78.0332 122.199 78.2575C122.237 78.4817 122.256 78.6873 122.256 78.8742C122.256 79.061 122.256 79.2479 122.256 79.4348C122.293 79.5843 122.312 79.6964 122.312 79.7712V80.0515C122.312 80.0889 122.331 80.1076 122.368 80.1076V79.7712C122.368 79.6964 122.368 79.5843 122.368 79.4348C122.406 79.2479 122.424 79.061 122.424 78.8742C122.424 78.6873 122.424 78.4817 122.424 78.2575C122.462 78.0332 122.481 77.7903 122.481 77.5286C122.518 77.2296 122.537 76.9493 122.537 76.6877C122.537 76.3887 122.556 76.071 122.593 75.7346C122.593 75.3982 122.593 75.0619 122.593 74.7255C122.631 74.3891 122.649 74.0153 122.649 73.6042C122.649 73.2305 122.649 72.8567 122.649 72.483C122.687 72.0718 122.706 71.6607 122.706 71.2496V70.0162C122.706 69.7172 122.724 69.5116 122.762 69.3995V63.5128ZM132.044 55.2715C132.044 54.7856 132.025 54.1876 131.987 53.4775C131.95 52.7674 131.819 52.0946 131.594 51.4592C131.369 50.8238 131.012 50.2819 130.525 49.8334C130.075 49.3475 129.4 49.1046 128.5 49.1046H126.475C126.062 49.1419 125.706 49.3101 125.406 49.6091C125.106 49.9081 124.956 50.2632 124.956 50.6743V63.2886C124.956 63.6997 125.106 64.0548 125.406 64.3538C125.706 64.6528 126.062 64.8023 126.475 64.8023H128.5C129.4 64.8023 130.075 64.578 130.525 64.1295C131.012 63.681 131.369 63.1391 131.594 62.5037C131.819 61.8309 131.95 61.1582 131.987 60.4854C132.025 59.7753 132.044 59.1773 132.044 58.6914V55.2715ZM135.813 85.9942C135.813 85.9942 135.794 85.9755 135.756 85.9381L135.7 85.8821C135.663 85.8073 135.625 85.7326 135.588 85.6578C135.588 85.5831 135.55 85.5083 135.475 85.4336C135.438 85.3214 135.4 85.2093 135.363 85.0972C135.325 84.9477 135.288 84.7795 135.25 84.5926C135.175 84.2189 135.138 83.8638 135.138 83.5274C135.1 83.3405 135.081 83.1537 135.081 82.9668C135.081 82.7425 135.081 82.4996 135.081 82.238V79.2666C135.081 79.005 135.081 78.7434 135.081 78.4817C135.081 78.2201 135.1 77.9398 135.138 77.6408C135.138 77.3791 135.138 77.1175 135.138 76.8559C135.138 76.5943 135.119 76.3326 135.081 76.071V75.2861C135.081 74.9124 135.063 74.6507 135.025 74.5012C135.025 74.2396 135.006 73.9967 134.969 73.7724C134.969 73.5108 134.95 73.2678 134.913 73.0436C134.838 72.5203 134.763 72.0718 134.688 71.6981C134.65 71.5112 134.613 71.343 134.575 71.1935C134.537 71.0066 134.481 70.8197 134.406 70.6329C134.331 70.446 134.275 70.2965 134.237 70.1844C134.2 70.0722 134.144 69.9601 134.069 69.848C133.994 69.7358 133.937 69.6424 133.9 69.5677C133.862 69.4929 133.825 69.4182 133.787 69.3434C133.75 69.3434 133.712 69.3247 133.675 69.2873C133.637 69.2873 133.619 69.2687 133.619 69.2313L133.675 69.2873C133.675 69.3247 133.694 69.3621 133.731 69.3995C133.731 69.4368 133.731 69.4742 133.731 69.5116C133.769 69.5116 133.787 69.549 133.787 69.6237C133.825 69.6611 133.844 69.6985 133.844 69.7358C133.844 69.7732 133.862 69.8293 133.9 69.904C133.937 70.0535 133.994 70.3152 134.069 70.6889C134.106 70.8758 134.125 71.0627 134.125 71.2496C134.162 71.4364 134.2 71.6233 134.237 71.8102C134.237 71.9971 134.237 72.2026 134.237 72.4269C134.275 72.6138 134.294 72.838 134.294 73.0996V80.0515C134.294 80.201 134.294 80.3318 134.294 80.4439C134.331 80.5561 134.35 80.6869 134.35 80.8364C134.35 81.098 134.35 81.3596 134.35 81.6213C134.387 81.8455 134.425 82.0698 134.463 82.294C134.5 82.5183 134.519 82.7425 134.519 82.9668C134.556 83.191 134.594 83.3966 134.631 83.5835C134.706 83.8077 134.763 84.0133 134.8 84.2002C134.838 84.3497 134.894 84.5179 134.969 84.7048C135.044 84.8916 135.1 85.0411 135.138 85.1533C135.175 85.2654 135.231 85.3775 135.306 85.4896L135.419 85.6018C135.456 85.6391 135.475 85.6765 135.475 85.7139C135.475 85.7139 135.494 85.7326 135.531 85.77L135.756 85.9942H135.813Z" fill="#F4EDE8"/>
<path d="M156.336 58.6914C156.336 60.2612 155.961 61.7001 155.211 63.0083C154.461 64.3164 153.448 65.3629 152.173 66.1478C153.448 66.8953 154.461 67.9418 155.211 69.2873C155.961 70.5955 156.336 72.0344 156.336 73.6042V77.2483C156.299 78.4444 156.055 79.5656 155.605 80.6121C155.155 81.6213 154.536 82.5183 153.748 83.3032C152.961 84.0507 152.042 84.6487 150.992 85.0972C149.942 85.5457 148.817 85.77 147.617 85.77H142.273C142.048 85.77 141.842 85.6765 141.654 85.4896C141.467 85.3028 141.373 85.0972 141.373 84.8729C141.373 85.0972 141.279 85.3028 141.092 85.4896C140.942 85.6765 140.735 85.77 140.473 85.77H137.548C137.548 85.4336 137.604 85.1906 137.716 85.0411C137.866 84.8916 138.016 84.7421 138.166 84.5926C138.316 84.4057 138.448 84.1628 138.56 83.8638C138.71 83.5648 138.785 83.0976 138.785 82.4622V68.7828C138.673 67.6241 138.148 66.7832 137.21 66.2599C137.623 65.9983 138.148 65.8675 138.785 65.8675V49.8334C138.785 49.198 138.71 48.7308 138.56 48.4318C138.448 48.1328 138.316 47.9085 138.166 47.759C138.016 47.5722 137.866 47.404 137.716 47.2545C137.604 47.105 137.548 46.862 137.548 46.5256H140.529C140.754 46.5256 140.96 46.6191 141.148 46.806C141.335 46.9555 141.429 47.161 141.429 47.4227C141.429 46.8246 141.729 46.5256 142.329 46.5256H147.617C148.817 46.5256 149.942 46.7499 150.992 47.1984C152.042 47.6469 152.961 48.2636 153.748 49.0485C154.536 49.796 155.155 50.693 155.605 51.7395C156.055 52.786 156.299 53.8886 156.336 55.0473V58.6914ZM141.823 63.5128C141.823 63.3259 141.804 63.1204 141.767 62.8961C141.767 62.6719 141.767 62.4476 141.767 62.2234V60.99C141.729 60.1677 141.71 59.3828 141.71 58.6353C141.71 57.8878 141.692 57.1777 141.654 56.5049C141.617 56.2059 141.598 55.9069 141.598 55.6079C141.598 55.3089 141.579 55.0286 141.542 54.7669C141.542 54.4679 141.523 54.2063 141.485 53.9821C141.485 53.7578 141.485 53.5522 141.485 53.3654C141.485 53.1785 141.467 53.0103 141.429 52.8608C141.429 52.7113 141.429 52.5805 141.429 52.4684V52.188C141.392 52.188 141.373 52.2067 141.373 52.2441V52.4684C141.373 52.5805 141.354 52.7113 141.317 52.8608C141.317 53.0103 141.317 53.1785 141.317 53.3654C141.317 53.5522 141.298 53.7578 141.26 53.9821C141.26 54.2063 141.26 54.4679 141.26 54.7669C141.223 55.0286 141.204 55.3089 141.204 55.6079C141.204 55.9069 141.185 56.2059 141.148 56.5049C141.11 57.1777 141.092 57.8878 141.092 58.6353C141.092 59.3828 141.073 60.1677 141.035 60.99V62.2234C141.035 62.4476 141.017 62.6719 140.979 62.8961C140.979 63.1204 140.979 63.3259 140.979 63.5128V68.7267C140.979 69.0257 140.998 69.25 141.035 69.3995V71.2496C141.035 71.6607 141.035 72.0718 141.035 72.483C141.073 72.8567 141.092 73.2305 141.092 73.6042C141.092 74.0153 141.092 74.3891 141.092 74.7255C141.129 75.0619 141.148 75.3982 141.148 75.7346C141.185 76.071 141.204 76.3887 141.204 76.6877C141.204 76.9493 141.223 77.2296 141.26 77.5286C141.26 77.7903 141.26 78.0332 141.26 78.2575C141.298 78.4817 141.317 78.6873 141.317 78.8742C141.317 79.061 141.317 79.2479 141.317 79.4348C141.354 79.5843 141.373 79.6964 141.373 79.7712V80.0515C141.373 80.0889 141.392 80.1076 141.429 80.1076V79.7712C141.429 79.6964 141.429 79.5843 141.429 79.4348C141.467 79.2479 141.485 79.061 141.485 78.8742C141.485 78.6873 141.485 78.4817 141.485 78.2575C141.523 78.0332 141.542 77.7903 141.542 77.5286C141.579 77.2296 141.598 76.9493 141.598 76.6877C141.598 76.3887 141.617 76.071 141.654 75.7346C141.654 75.3982 141.654 75.0619 141.654 74.7255C141.692 74.3891 141.71 74.0153 141.71 73.6042C141.71 73.2305 141.71 72.8567 141.71 72.483C141.748 72.0718 141.767 71.6607 141.767 71.2496V70.0162C141.767 69.7172 141.785 69.5116 141.823 69.3995V63.5128ZM153.411 76.5195C153.373 76.5943 153.355 76.6877 153.355 76.7998V78.0893C153.317 78.2388 153.298 78.3883 153.298 78.5378C153.298 78.6499 153.298 78.762 153.298 78.8742C153.298 78.9489 153.28 79.005 153.242 79.0424C153.242 79.0797 153.242 79.1358 153.242 79.2105V79.5469C153.205 79.6217 153.186 79.7151 153.186 79.8272C153.186 79.902 153.167 79.9767 153.13 80.0515C153.13 80.1262 153.111 80.1823 153.073 80.2197V80.3318L153.017 80.4439C153.017 80.4439 153.055 80.4253 153.13 80.3879V80.3318L153.186 80.2757C153.223 80.2384 153.242 80.2197 153.242 80.2197C153.242 80.1823 153.261 80.1449 153.298 80.1076C153.336 80.0328 153.373 79.9581 153.411 79.8833C153.448 79.7712 153.486 79.6777 153.523 79.603C153.561 79.5282 153.58 79.4909 153.58 79.4909C153.58 79.4535 153.598 79.3974 153.636 79.3227C153.673 79.2479 153.692 79.1919 153.692 79.1545C153.692 79.1171 153.711 79.061 153.748 78.9863C153.786 78.9115 153.805 78.8555 153.805 78.8181C153.805 78.7434 153.823 78.6686 153.861 78.5938C153.861 78.5191 153.861 78.463 153.861 78.4257C153.898 78.3509 153.917 78.2762 153.917 78.2014C153.955 78.0519 153.973 77.9024 153.973 77.7529C154.011 77.6034 154.048 77.4539 154.086 77.3044C154.123 77.1923 154.142 77.0241 154.142 76.7998C154.142 76.7251 154.142 76.6503 154.142 76.5756C154.18 76.5008 154.198 76.4261 154.198 76.3513V74.3891C154.198 74.1649 154.18 73.9967 154.142 73.8845V73.6603C154.142 73.5855 154.123 73.5482 154.086 73.5482C154.086 73.5108 154.086 73.4734 154.086 73.436C154.086 73.2492 154.067 73.0996 154.03 72.9875C154.03 72.838 154.011 72.6885 153.973 72.539C153.936 72.4643 153.917 72.3895 153.917 72.3148C153.917 72.24 153.898 72.1653 153.861 72.0905C153.861 72.0531 153.842 72.0344 153.805 72.0344C153.805 71.9971 153.805 71.9597 153.805 71.9223C153.805 71.8849 153.786 71.8663 153.748 71.8663C153.748 71.8289 153.748 71.7915 153.748 71.7541C153.711 71.6794 153.692 71.6233 153.692 71.5859C153.692 71.5486 153.673 71.4925 153.636 71.4177C153.598 71.343 153.58 71.2869 153.58 71.2496C153.58 71.2122 153.561 71.1561 153.523 71.0814C153.486 71.044 153.467 71.0066 153.467 70.9692C153.467 70.9319 153.448 70.8945 153.411 70.8571C153.336 70.7076 153.298 70.6329 153.298 70.6329C153.261 70.5955 153.242 70.5768 153.242 70.5768C153.242 70.5394 153.223 70.502 153.186 70.4647C153.148 70.4273 153.13 70.3899 153.13 70.3525L153.017 70.2404C153.017 70.2404 153.036 70.2778 153.073 70.3525V70.4647C153.111 70.502 153.13 70.5768 153.13 70.6889C153.13 70.7263 153.13 70.7637 153.13 70.8011C153.167 70.8011 153.186 70.8384 153.186 70.9132C153.186 71.0253 153.205 71.1187 153.242 71.1935V71.4738C153.242 71.5486 153.242 71.6046 153.242 71.642C153.28 71.6794 153.298 71.7354 153.298 71.8102C153.298 72.1466 153.317 72.4082 153.355 72.5951V73.4921C153.392 73.679 153.411 73.978 153.411 74.3891V76.5195ZM151.105 73.6042C151.105 73.1183 151.086 72.5203 151.048 71.8102C151.011 71.1001 150.88 70.4273 150.654 69.7919C150.429 69.1565 150.073 68.6146 149.586 68.1661C149.136 67.6802 148.461 67.4373 147.561 67.4373H145.535C145.123 67.4746 144.767 67.6428 144.467 67.9418C144.167 68.2408 144.017 68.5959 144.017 69.007V81.6213C144.017 82.0324 144.167 82.3875 144.467 82.6865C144.767 82.9855 145.123 83.135 145.535 83.135H147.561C148.461 83.135 149.136 82.9107 149.586 82.4622C150.073 82.0137 150.429 81.4718 150.654 80.8364C150.88 80.1636 151.011 79.4909 151.048 78.8181C151.086 78.108 151.105 77.51 151.105 77.0241V73.6042ZM151.105 55.2715C151.105 54.7856 151.086 54.1876 151.048 53.4775C151.011 52.7674 150.88 52.0946 150.654 51.4592C150.429 50.8238 150.073 50.2819 149.586 49.8334C149.136 49.3475 148.461 49.1046 147.561 49.1046H145.535C145.123 49.1419 144.767 49.3101 144.467 49.6091C144.167 49.9081 144.017 50.2632 144.017 50.6743V63.2886C144.017 63.6997 144.167 64.0548 144.467 64.3538C144.767 64.6528 145.123 64.8023 145.535 64.8023H147.561C148.461 64.8023 149.136 64.578 149.586 64.1295C150.073 63.681 150.429 63.1391 150.654 62.5037C150.88 61.8309 151.011 61.1582 151.048 60.4854C151.086 59.7753 151.105 59.1773 151.105 58.6914V55.2715ZM153.523 60.8218C153.561 60.747 153.58 60.7097 153.58 60.7097C153.58 60.6723 153.598 60.6162 153.636 60.5415C153.673 60.4667 153.692 60.4107 153.692 60.3733C153.692 60.2985 153.711 60.2238 153.748 60.149C153.786 60.0743 153.805 60.0182 153.805 59.9808C153.805 59.9435 153.823 59.8874 153.861 59.8126C153.861 59.7379 153.861 59.6818 153.861 59.6445C153.898 59.5697 153.917 59.495 153.917 59.4202C153.955 59.2707 153.973 59.1212 153.973 58.9717C154.011 58.8222 154.048 58.6727 154.086 58.5232C154.123 58.4111 154.142 58.2429 154.142 58.0186C154.142 57.9439 154.142 57.8691 154.142 57.7944C154.18 57.7196 154.198 57.6449 154.198 57.5701V55.6079C154.198 55.3836 154.18 55.2155 154.142 55.1033V54.8791C154.142 54.8043 154.123 54.7669 154.086 54.7669C154.086 54.7296 154.086 54.6735 154.086 54.5988C154.086 54.4119 154.048 54.1316 153.973 53.7578C153.936 53.6831 153.917 53.6083 153.917 53.5336C153.917 53.4588 153.898 53.3841 153.861 53.3093C153.861 53.2719 153.842 53.2532 153.805 53.2532C153.805 53.2159 153.805 53.1785 153.805 53.1411C153.805 53.1037 153.786 53.0851 153.748 53.0851C153.748 53.0477 153.748 53.0103 153.748 52.9729C153.711 52.8982 153.692 52.8421 153.692 52.8047C153.692 52.7674 153.673 52.7113 153.636 52.6365C153.598 52.5618 153.58 52.5057 153.58 52.4684C153.58 52.431 153.561 52.3749 153.523 52.3002C153.486 52.2628 153.467 52.2254 153.467 52.188C153.467 52.1507 153.448 52.1133 153.411 52.0759C153.336 51.9264 153.298 51.8517 153.298 51.8517C153.261 51.8143 153.242 51.7956 153.242 51.7956C153.242 51.7582 153.223 51.7208 153.186 51.6835C153.148 51.6461 153.13 51.6087 153.13 51.5713C153.092 51.534 153.073 51.4966 153.073 51.4592H153.017C153.017 51.4592 153.036 51.4966 153.073 51.5713V51.6835C153.111 51.7208 153.13 51.7956 153.13 51.9077C153.13 51.9451 153.13 51.9825 153.13 52.0198C153.167 52.0198 153.186 52.0572 153.186 52.132C153.186 52.2441 153.205 52.3375 153.242 52.4123V52.6926C153.242 52.7674 153.242 52.8234 153.242 52.8608C153.28 52.8982 153.298 52.9542 153.298 53.029C153.298 53.3654 153.317 53.627 153.355 53.8139V54.7109C153.392 54.8978 153.411 55.1968 153.411 55.6079V57.7383C153.373 57.8131 153.355 57.9065 153.355 58.0186V59.3081C153.317 59.4576 153.298 59.6071 153.298 59.7566C153.298 59.8687 153.298 59.9808 153.298 60.093C153.298 60.1677 153.28 60.2238 153.242 60.2612C153.242 60.2985 153.242 60.3546 153.242 60.4293V60.7657C153.205 60.8405 153.186 60.9339 153.186 61.046C153.186 61.1208 153.167 61.1955 153.13 61.2703C153.13 61.345 153.111 61.4011 153.073 61.4385V61.5506L153.017 61.6627C153.017 61.6627 153.055 61.644 153.13 61.6067V61.5506L153.186 61.4945C153.223 61.4572 153.242 61.4385 153.242 61.4385C153.242 61.4011 153.261 61.3637 153.298 61.3264C153.336 61.2516 153.373 61.1769 153.411 61.1021C153.448 60.99 153.486 60.8965 153.523 60.8218Z" fill="#F4EDE8"/>
<path d="M175.509 82.3501C175.509 83.0229 175.566 83.5274 175.678 83.8638C175.828 84.1628 175.978 84.4057 176.128 84.5926C176.278 84.7421 176.409 84.8916 176.522 85.0411C176.672 85.1906 176.747 85.4336 176.747 85.77H161.446C161.221 85.77 161.015 85.6765 160.827 85.4896C160.64 85.3028 160.546 85.0972 160.546 84.8729C160.546 85.0972 160.452 85.3028 160.265 85.4896C160.115 85.6765 159.909 85.77 159.646 85.77H156.721C156.721 85.4336 156.777 85.1906 156.89 85.0411C157.04 84.8916 157.19 84.7421 157.34 84.5926C157.49 84.4057 157.621 84.1628 157.734 83.8638C157.884 83.5648 157.959 83.0976 157.959 82.4622V68.7828C157.846 67.6241 157.321 66.7832 156.383 66.2599C156.796 65.9983 157.321 65.8675 157.959 65.8675V49.8334C157.959 49.198 157.884 48.7308 157.734 48.4318C157.621 48.1328 157.49 47.9085 157.34 47.759C157.19 47.5722 157.04 47.404 156.89 47.2545C156.777 47.105 156.721 46.862 156.721 46.5256H159.702C159.927 46.5256 160.134 46.6191 160.321 46.806C160.509 46.9555 160.602 47.161 160.602 47.4227C160.602 46.8246 160.902 46.5256 161.502 46.5256H176.747C176.747 46.862 176.672 47.105 176.522 47.2545C176.409 47.404 176.278 47.5722 176.128 47.759C175.978 47.9085 175.828 48.1515 175.678 48.4879C175.566 48.7869 175.509 49.2727 175.509 49.9455V57.4019C174.197 57.4019 173.184 57.159 172.472 56.6731C171.797 56.1498 171.29 55.5705 170.953 54.9351C170.54 54.225 170.315 53.3841 170.278 52.4123V50.6743C170.278 50.2632 170.128 49.9081 169.828 49.6091C169.528 49.3101 169.172 49.1419 168.759 49.1046H164.709C164.296 49.1419 163.94 49.3101 163.64 49.6091C163.34 49.9081 163.19 50.2632 163.19 50.6743V63.2886C163.19 63.6997 163.34 64.0548 163.64 64.3538C163.94 64.6528 164.296 64.8023 164.709 64.8023H165.103C165.515 64.8023 165.853 64.6528 166.115 64.3538C166.415 64.0548 166.565 63.6997 166.565 63.2886V63.2325C166.603 62.6719 166.753 62.186 167.015 61.7749C167.24 61.4011 167.578 61.0647 168.028 60.7657C168.478 60.4667 169.134 60.3172 169.997 60.3172V71.9223C169.134 71.9223 168.478 71.7728 168.028 71.4738C167.578 71.1748 167.24 70.8384 167.015 70.4647C166.753 70.0535 166.603 69.5677 166.565 69.007C166.565 68.5959 166.415 68.2408 166.115 67.9418C165.853 67.6428 165.515 67.4746 165.103 67.4373H164.709C164.296 67.4746 163.94 67.6428 163.64 67.9418C163.34 68.2408 163.19 68.5959 163.19 69.007V81.6213C163.19 82.0324 163.34 82.3875 163.64 82.6865C163.94 82.9855 164.296 83.135 164.709 83.135H168.759C169.172 83.135 169.528 82.9855 169.828 82.6865C170.128 82.3875 170.278 82.0324 170.278 81.6213V79.8272C170.315 78.8929 170.54 78.0706 170.953 77.3605C171.29 76.7251 171.797 76.1458 172.472 75.6225C173.184 75.0992 174.197 74.8376 175.509 74.8376V82.3501ZM160.996 63.5128C160.996 63.3259 160.977 63.1204 160.94 62.8961C160.94 62.6719 160.94 62.4476 160.94 62.2234V60.99C160.902 60.1677 160.884 59.3828 160.884 58.6353C160.884 57.8878 160.865 57.1777 160.827 56.5049C160.79 56.2059 160.771 55.9069 160.771 55.6079C160.771 55.3089 160.752 55.0286 160.715 54.7669C160.715 54.4679 160.696 54.2063 160.659 53.9821C160.659 53.7578 160.659 53.5522 160.659 53.3654C160.659 53.1785 160.64 53.0103 160.602 52.8608C160.602 52.7113 160.602 52.5805 160.602 52.4684V52.188C160.565 52.188 160.546 52.2067 160.546 52.2441V52.4684C160.546 52.5805 160.527 52.7113 160.49 52.8608C160.49 53.0103 160.49 53.1785 160.49 53.3654C160.49 53.5522 160.471 53.7578 160.434 53.9821C160.434 54.2063 160.434 54.4679 160.434 54.7669C160.396 55.0286 160.377 55.3089 160.377 55.6079C160.377 55.9069 160.359 56.2059 160.321 56.5049C160.284 57.1777 160.265 57.8878 160.265 58.6353C160.265 59.3828 160.246 60.1677 160.209 60.99V62.2234C160.209 62.4476 160.19 62.6719 160.152 62.8961C160.152 63.1204 160.152 63.3259 160.152 63.5128V68.7267C160.152 69.0257 160.171 69.25 160.209 69.3995V71.2496C160.209 71.6607 160.209 72.0718 160.209 72.483C160.246 72.8567 160.265 73.2305 160.265 73.6042C160.265 74.0153 160.265 74.3891 160.265 74.7255C160.302 75.0619 160.321 75.3982 160.321 75.7346C160.359 76.071 160.377 76.3887 160.377 76.6877C160.377 76.9493 160.396 77.2296 160.434 77.5286C160.434 77.7903 160.434 78.0332 160.434 78.2575C160.471 78.4817 160.49 78.6873 160.49 78.8742C160.49 79.061 160.49 79.2479 160.49 79.4348C160.527 79.5843 160.546 79.6964 160.546 79.7712V80.0515C160.546 80.0889 160.565 80.1076 160.602 80.1076V79.7712C160.602 79.6964 160.602 79.5843 160.602 79.4348C160.64 79.2479 160.659 79.061 160.659 78.8742C160.659 78.6873 160.659 78.4817 160.659 78.2575C160.696 78.0332 160.715 77.7903 160.715 77.5286C160.752 77.2296 160.771 76.9493 160.771 76.6877C160.771 76.3887 160.79 76.071 160.827 75.7346C160.827 75.3982 160.827 75.0619 160.827 74.7255C160.865 74.3891 160.884 74.0153 160.884 73.6042C160.884 73.2305 160.884 72.8567 160.884 72.483C160.921 72.0718 160.94 71.6607 160.94 71.2496V70.0162C160.94 69.7172 160.959 69.5116 160.996 69.3995V63.5128Z" fill="#F4EDE8"/>
<path d="M198.139 88.1246C198.551 88.1994 198.833 88.3302 198.983 88.5171C199.17 88.7039 199.301 88.8908 199.376 89.0777C199.451 89.3019 199.489 89.5449 199.489 89.8065C198.289 89.8065 197.164 89.657 196.114 89.358C195.064 89.059 194.126 88.5731 193.301 87.9004C192.514 87.2276 191.876 86.3493 191.388 85.2654C190.938 84.1815 190.713 82.8547 190.713 81.2849V73.6042C190.713 73.1183 190.695 72.5203 190.657 71.8102C190.62 71.1001 190.488 70.4273 190.263 69.7919C190.038 69.1565 189.682 68.6146 189.195 68.1661C188.745 67.6802 188.07 67.4373 187.17 67.4373H184.863C184.526 67.512 184.226 67.6989 183.963 67.9979C183.738 68.2595 183.626 68.5772 183.626 68.951V82.3501C183.626 83.0229 183.682 83.5274 183.794 83.8638C183.944 84.1628 184.094 84.4057 184.244 84.5926C184.394 84.7421 184.526 84.8916 184.638 85.0411C184.788 85.1906 184.863 85.4336 184.863 85.77H181.882C181.657 85.77 181.45 85.6765 181.263 85.4896C181.075 85.3028 180.982 85.0972 180.982 84.8729C180.982 85.0972 180.888 85.3028 180.7 85.4896C180.55 85.6765 180.344 85.77 180.082 85.77H177.157C177.157 85.4336 177.213 85.1906 177.325 85.0411C177.475 84.8916 177.625 84.7421 177.775 84.5926C177.925 84.4057 178.057 84.1628 178.169 83.8638C178.319 83.5648 178.394 83.0976 178.394 82.4622V68.7828C178.282 67.6241 177.757 66.7832 176.819 66.2599C177.232 65.9983 177.757 65.8675 178.394 65.8675V49.8334C178.394 49.198 178.319 48.7308 178.169 48.4318C178.057 48.1328 177.925 47.9085 177.775 47.759C177.625 47.5722 177.475 47.404 177.325 47.2545C177.213 47.105 177.157 46.862 177.157 46.5256H180.138C180.363 46.5256 180.569 46.6191 180.757 46.806C180.944 46.9555 181.038 47.161 181.038 47.4227C181.038 46.8246 181.338 46.5256 181.938 46.5256H187.226C188.426 46.5256 189.551 46.7499 190.601 47.1984C191.651 47.6469 192.57 48.2636 193.357 49.0485C194.145 49.796 194.764 50.693 195.214 51.7395C195.664 52.786 195.907 53.8886 195.945 55.0473V58.6914C195.945 60.2612 195.57 61.7001 194.82 63.0083C194.07 64.3164 193.057 65.3629 191.782 66.1478C193.057 66.8953 194.07 67.9418 194.82 69.2873C195.57 70.5955 195.945 72.0344 195.945 73.6042V81.0606C195.945 81.8455 195.945 82.6491 195.945 83.4714C195.982 84.2562 196.076 84.9851 196.226 85.6578C196.376 86.2932 196.601 86.8352 196.901 87.2837C197.201 87.7322 197.614 88.0125 198.139 88.1246ZM193.02 57.7383C192.982 57.8131 192.964 57.9065 192.964 58.0186V59.3081C192.926 59.4576 192.907 59.6071 192.907 59.7566C192.907 59.8687 192.907 59.9808 192.907 60.093C192.907 60.1677 192.889 60.2238 192.851 60.2612C192.851 60.2985 192.851 60.3546 192.851 60.4293V60.7657C192.814 60.8405 192.795 60.9339 192.795 61.046C192.795 61.1208 192.776 61.1955 192.739 61.2703C192.739 61.345 192.72 61.4011 192.682 61.4385V61.5506L192.626 61.6627C192.626 61.6627 192.664 61.644 192.739 61.6067V61.5506L192.795 61.4945C192.832 61.4572 192.851 61.4385 192.851 61.4385C192.851 61.4011 192.87 61.3637 192.907 61.3264C192.945 61.2516 192.982 61.1769 193.02 61.1021C193.057 60.99 193.095 60.8965 193.132 60.8218C193.17 60.747 193.189 60.7097 193.189 60.7097C193.189 60.6723 193.207 60.6162 193.245 60.5415C193.282 60.4667 193.301 60.4107 193.301 60.3733C193.301 60.2985 193.32 60.2238 193.357 60.149C193.395 60.0743 193.414 60.0182 193.414 59.9808C193.414 59.9435 193.432 59.8874 193.47 59.8126C193.47 59.7379 193.47 59.6818 193.47 59.6445C193.507 59.5697 193.526 59.495 193.526 59.4202C193.564 59.2707 193.582 59.1212 193.582 58.9717C193.62 58.8222 193.657 58.6727 193.695 58.5232C193.732 58.4111 193.751 58.2429 193.751 58.0186C193.751 57.9439 193.751 57.8691 193.751 57.7944C193.789 57.7196 193.807 57.6449 193.807 57.5701V55.6079C193.807 55.3836 193.789 55.2155 193.751 55.1033V54.8791C193.751 54.8043 193.732 54.7669 193.695 54.7669C193.695 54.7296 193.695 54.6735 193.695 54.5988C193.695 54.4119 193.657 54.1316 193.582 53.7578C193.545 53.6831 193.526 53.6083 193.526 53.5336C193.526 53.4588 193.507 53.3841 193.47 53.3093C193.47 53.2719 193.451 53.2532 193.414 53.2532C193.414 53.2159 193.414 53.1785 193.414 53.1411C193.414 53.1037 193.395 53.0851 193.357 53.0851C193.357 53.0477 193.357 53.0103 193.357 52.9729C193.32 52.8982 193.301 52.8421 193.301 52.8047C193.301 52.7674 193.282 52.7113 193.245 52.6365C193.207 52.5618 193.189 52.5057 193.189 52.4684C193.189 52.431 193.17 52.3749 193.132 52.3002C193.095 52.2628 193.076 52.2254 193.076 52.188C193.076 52.1507 193.057 52.1133 193.02 52.0759C192.945 51.9264 192.907 51.8517 192.907 51.8517C192.87 51.8143 192.851 51.7956 192.851 51.7956C192.851 51.7582 192.832 51.7208 192.795 51.6835C192.757 51.6461 192.739 51.6087 192.739 51.5713C192.701 51.534 192.682 51.4966 192.682 51.4592H192.626C192.626 51.4592 192.645 51.4966 192.682 51.5713V51.6835C192.72 51.7208 192.739 51.7956 192.739 51.9077C192.739 51.9451 192.739 51.9825 192.739 52.0198C192.776 52.0198 192.795 52.0572 192.795 52.132C192.795 52.2441 192.814 52.3375 192.851 52.4123V52.6926C192.851 52.7674 192.851 52.8234 192.851 52.8608C192.889 52.8982 192.907 52.9542 192.907 53.029C192.907 53.3654 192.926 53.627 192.964 53.8139V54.7109C193.001 54.8978 193.02 55.1968 193.02 55.6079V57.7383ZM181.432 63.5128C181.432 63.3259 181.413 63.1204 181.375 62.8961C181.375 62.6719 181.375 62.4476 181.375 62.2234V60.99C181.338 60.1677 181.319 59.3828 181.319 58.6353C181.319 57.8878 181.3 57.1777 181.263 56.5049C181.225 56.2059 181.207 55.9069 181.207 55.6079C181.207 55.3089 181.188 55.0286 181.15 54.7669C181.15 54.4679 181.132 54.2063 181.094 53.9821C181.094 53.7578 181.094 53.5522 181.094 53.3654C181.094 53.1785 181.075 53.0103 181.038 52.8608C181.038 52.7113 181.038 52.5805 181.038 52.4684V52.188C181 52.188 180.982 52.2067 180.982 52.2441V52.4684C180.982 52.5805 180.963 52.7113 180.925 52.8608C180.925 53.0103 180.925 53.1785 180.925 53.3654C180.925 53.5522 180.907 53.7578 180.869 53.9821C180.869 54.2063 180.869 54.4679 180.869 54.7669C180.832 55.0286 180.813 55.3089 180.813 55.6079C180.813 55.9069 180.794 56.2059 180.757 56.5049C180.719 57.1777 180.7 57.8878 180.7 58.6353C180.7 59.3828 180.682 60.1677 180.644 60.99V62.2234C180.644 62.4476 180.625 62.6719 180.588 62.8961C180.588 63.1204 180.588 63.3259 180.588 63.5128V68.7267C180.588 69.0257 180.607 69.25 180.644 69.3995V71.2496C180.644 71.6607 180.644 72.0718 180.644 72.483C180.682 72.8567 180.7 73.2305 180.7 73.6042C180.7 74.0153 180.7 74.3891 180.7 74.7255C180.738 75.0619 180.757 75.3982 180.757 75.7346C180.794 76.071 180.813 76.3887 180.813 76.6877C180.813 76.9493 180.832 77.2296 180.869 77.5286C180.869 77.7903 180.869 78.0332 180.869 78.2575C180.907 78.4817 180.925 78.6873 180.925 78.8742C180.925 79.061 180.925 79.2479 180.925 79.4348C180.963 79.5843 180.982 79.6964 180.982 79.7712V80.0515C180.982 80.0889 181 80.1076 181.038 80.1076V79.7712C181.038 79.6964 181.038 79.5843 181.038 79.4348C181.075 79.2479 181.094 79.061 181.094 78.8742C181.094 78.6873 181.094 78.4817 181.094 78.2575C181.132 78.0332 181.15 77.7903 181.15 77.5286C181.188 77.2296 181.207 76.9493 181.207 76.6877C181.207 76.3887 181.225 76.071 181.263 75.7346C181.263 75.3982 181.263 75.0619 181.263 74.7255C181.3 74.3891 181.319 74.0153 181.319 73.6042C181.319 73.2305 181.319 72.8567 181.319 72.483C181.357 72.0718 181.375 71.6607 181.375 71.2496V70.0162C181.375 69.7172 181.394 69.5116 181.432 69.3995V63.5128ZM190.713 55.2715C190.713 54.7856 190.695 54.1876 190.657 53.4775C190.62 52.7674 190.488 52.0946 190.263 51.4592C190.038 50.8238 189.682 50.2819 189.195 49.8334C188.745 49.3475 188.07 49.1046 187.17 49.1046H185.144C184.732 49.1419 184.376 49.3101 184.076 49.6091C183.776 49.9081 183.626 50.2632 183.626 50.6743V63.2886C183.626 63.6997 183.776 64.0548 184.076 64.3538C184.376 64.6528 184.732 64.8023 185.144 64.8023H187.17C188.07 64.8023 188.745 64.578 189.195 64.1295C189.682 63.681 190.038 63.1391 190.263 62.5037C190.488 61.8309 190.62 61.1582 190.657 60.4854C190.695 59.7753 190.713 59.1773 190.713 58.6914V55.2715ZM194.482 85.9942C194.482 85.9942 194.464 85.9755 194.426 85.9381L194.37 85.8821C194.332 85.8073 194.295 85.7326 194.257 85.6578C194.257 85.5831 194.22 85.5083 194.145 85.4336C194.107 85.3214 194.07 85.2093 194.032 85.0972C193.995 84.9477 193.957 84.7795 193.92 84.5926C193.845 84.2189 193.807 83.8638 193.807 83.5274C193.77 83.3405 193.751 83.1537 193.751 82.9668C193.751 82.7425 193.751 82.4996 193.751 82.238V79.2666C193.751 79.005 193.751 78.7434 193.751 78.4817C193.751 78.2201 193.77 77.9398 193.807 77.6408C193.807 77.3791 193.807 77.1175 193.807 76.8559C193.807 76.5943 193.789 76.3326 193.751 76.071V75.2861C193.751 74.9124 193.732 74.6507 193.695 74.5012C193.695 74.2396 193.676 73.9967 193.639 73.7724C193.639 73.5108 193.62 73.2678 193.582 73.0436C193.507 72.5203 193.432 72.0718 193.357 71.6981C193.32 71.5112 193.282 71.343 193.245 71.1935C193.207 71.0066 193.151 70.8197 193.076 70.6329C193.001 70.446 192.945 70.2965 192.907 70.1844C192.87 70.0722 192.814 69.9601 192.739 69.848C192.664 69.7358 192.607 69.6424 192.57 69.5677C192.532 69.4929 192.495 69.4182 192.457 69.3434C192.42 69.3434 192.382 69.3247 192.345 69.2873C192.307 69.2873 192.289 69.2687 192.289 69.2313L192.345 69.2873C192.345 69.3247 192.364 69.3621 192.401 69.3995C192.401 69.4368 192.401 69.4742 192.401 69.5116C192.439 69.5116 192.457 69.549 192.457 69.6237C192.495 69.6611 192.514 69.6985 192.514 69.7358C192.514 69.7732 192.532 69.8293 192.57 69.904C192.607 70.0535 192.664 70.3152 192.739 70.6889C192.776 70.8758 192.795 71.0627 192.795 71.2496C192.832 71.4364 192.87 71.6233 192.907 71.8102C192.907 71.9971 192.907 72.2026 192.907 72.4269C192.945 72.6138 192.964 72.838 192.964 73.0996V80.0515C192.964 80.201 192.964 80.3318 192.964 80.4439C193.001 80.5561 193.02 80.6869 193.02 80.8364C193.02 81.098 193.02 81.3596 193.02 81.6213C193.057 81.8455 193.095 82.0698 193.132 82.294C193.17 82.5183 193.189 82.7425 193.189 82.9668C193.226 83.191 193.264 83.3966 193.301 83.5835C193.376 83.8077 193.432 84.0133 193.47 84.2002C193.507 84.3497 193.564 84.5179 193.639 84.7048C193.714 84.8916 193.77 85.0411 193.807 85.1533C193.845 85.2654 193.901 85.3775 193.976 85.4896L194.089 85.6018C194.126 85.6391 194.145 85.6765 194.145 85.7139C194.145 85.7139 194.164 85.7326 194.201 85.77L194.426 85.9942H194.482Z" fill="#F4EDE8"/>
<ellipse rx="3.01354" ry="3.00339" transform="matrix(1 0 0 -1 210.947 67.0288)" fill="#999591"/>
<ellipse rx="3.01354" ry="3.00339" transform="matrix(1 0 0 -1 19.0857 67.0288)" fill="#999591"/>
</svg>
